<svg width="1441" height="768" viewBox="0 0 1441 768" fill="none" xmlns="http://www.w3.org/2000/svg">
<g opacity="0.35">
<path d="M1307.84 270.62L1476.73 205.97L1477.05 222.037L1307.83 289.815L1307.84 270.62Z" fill="#9BA5B2"/>
<path d="M1308.02 270.823L1148.34 183.686L1336.28 117.917L1486.1 202.326L1308.02 270.823Z" fill="#ECECEC"/>
<path d="M1148.34 211.532V183.683L1307.87 270.544V296.73L1148.34 211.532Z" fill="#B7BFC7"/>
<path d="M1512.65 396.6L1146.24 194.695L1107.41 222.247L1508.8 454.375L1512.65 396.6Z" fill="white"/>
<path d="M10.0326 765.506L1253.59 289.883V340.76L194.571 761.899L10.0326 765.506Z" fill="#9BA5B2"/>
<path d="M9.44019 766.838L-332.89 754.34L1105.46 203.529L1253.59 289.915L9.44019 766.838Z" fill="#ECECEC"/>
<path d="M51.2267 766.11L1485.61 216.747L1502.82 273.214L172.088 780.055L51.2267 766.11Z" fill="white"/>
<path d="M1157.53 406.558L1157.45 382.135L1481 562.213V591.288L1157.53 406.558Z" fill="#B7BFC7"/>
<path d="M1469.68 623.672L1484.57 575.75L1148.22 388.205L1092.04 416.116L1469.68 623.672Z" fill="white"/>
<path d="M1082.02 561.854L1247.23 489.868L1247.55 509.811L1082.02 592.136L1082.02 561.854Z" fill="#9BA5B2"/>
<path d="M648.01 766.069L1263.85 493.649L1323.19 526.936L710.292 807.704L648.01 766.069Z" fill="white"/>
<path d="M1082.02 561.851L923.994 470.378L1095 406.408L1247.23 489.962L1082.02 561.851Z" fill="#ECECEC"/>
<path d="M924.008 493.469L924.008 470.389L1082.02 561.831V588.017L924.008 493.469Z" fill="#B7BFC7"/>
<path d="M1452.16 780.858L1137.44 596.754L1301.96 523.801L1514.39 642.216L1452.16 780.858Z" fill="#ECECEC"/>
<path d="M1137.39 625.856L1137.39 596.735L1421.05 761.792L1429.21 795.36L1137.39 625.856Z" fill="#B7BFC7"/>
<path d="M825.837 499.788L1277.17 779.257L1396.13 759.611L908.321 471.319L825.837 499.788Z" fill="white"/>
<path d="M1008.86 840.916L1009.79 605.9L1279.05 779.892V851.661L1008.86 840.916Z" fill="#5A687C"/>
<path d="M534.083 774.829L999.364 594.773V674.2L796.935 761.997L534.083 774.829Z" fill="#9BA5B2"/>
<path d="M486.196 793.737L143.866 781.238L855.48 506.137L999.364 594.804L486.196 793.737Z" fill="#ECECEC"/>
<path d="M532.491 790.162L1059.24 583.935L1089.6 627.118L585.021 850.943L532.491 790.162Z" fill="white"/>
<path d="M641.307 779.164L1069.58 602.373" stroke="#6ACDB7" stroke-width="1.23231" stroke-linecap="round" stroke-linejoin="round" stroke-dasharray="12.44 12.44"/>
<path d="M1306.38 304.227L1482.39 231.592" stroke="#6ACDB7" stroke-width="1.23231" stroke-linecap="round" stroke-linejoin="round" stroke-dasharray="12.44 12.44"/>
<path d="M1306.53 304.135L1131.34 201.497" stroke="#6ACDB7" stroke-width="1.23231" stroke-linecap="round" stroke-linejoin="round" stroke-dasharray="12.44 12.44"/>
<path d="M662.118 812.742L1060.83 639V761.731L879.051 830.723L662.118 812.742Z" fill="#5A687C"/>
<path d="M1044.42 793.194L698.527 787.043L1062.56 638.139L1323.37 797.59L1044.42 793.194Z" fill="#ECECEC"/>
<path d="M1498.75 572.181L1157.46 382.139L1302.3 324.535L1498.75 432.414V572.181Z" fill="#ECECEC"/>
<path d="M1335.73 764.267L1069.69 602.168L862.739 477.006" stroke="#6ACDB7" stroke-width="1.23231" stroke-linecap="round" stroke-linejoin="round" stroke-dasharray="12.44 12.44"/>
<path d="M1521.02 427.562L1306.4 304.214L26.8865 799.249" stroke="#6ACDB7" stroke-width="1.23231" stroke-linecap="round" stroke-linejoin="round" stroke-dasharray="12.44 12.44"/>
<path d="M1148.09 671.665L1097.41 640.414C1094.8 638.806 1095.12 634.92 1097.96 633.761L1128.79 621.16C1129.88 620.712 1131.12 620.808 1132.14 621.419L1185.54 653.624C1188.06 655.146 1187.92 658.851 1185.29 660.175L1161.31 672.237C1157.11 674.354 1152.1 674.138 1148.09 671.665Z" fill="#333333" fill-opacity="0.48"/>
<path d="M1101.08 631.474C1101.82 629.92 1105.5 629.459 1105.58 629.487C1105.66 629.514 1107.81 630.744 1107.81 630.744L1102.1 635.828L1101.51 635.824C1101.51 635.824 1100.33 633.028 1101.08 631.474V631.474Z" fill="black"/>
<path d="M1143.71 659.942L1142.38 659.884C1142.38 659.884 1140.41 658.228 1141.18 656.299C1141.94 654.372 1146.28 653.166 1146.36 653.218C1146.45 653.27 1148.31 655.448 1148.31 655.448L1143.71 659.942Z" fill="black"/>
<path d="M1103.44 631.506L1107.24 629.525C1108.22 629.042 1109.54 629.166 1110.99 630.013C1114.02 631.792 1116.46 636.088 1116.44 639.609C1116.43 641.253 1115.89 642.436 1115 643.051L1110.79 645.262C1109.81 645.686 1108.54 645.544 1107.14 644.726C1104.11 642.945 1101.67 638.651 1101.69 635.13C1101.7 633.304 1102.37 632.045 1103.44 631.506V631.506Z" fill="#2E373A"/>
<path d="M1101.69 635.13C1101.67 638.651 1104.11 642.945 1107.14 644.726C1110.18 646.506 1112.66 645.094 1112.68 641.573C1112.7 638.052 1110.26 633.755 1107.22 631.977C1104.19 630.199 1101.71 631.609 1101.69 635.13Z" fill="#555E61"/>
<path d="M1101.92 635.321C1101.9 638.631 1104.2 642.673 1107.05 644.348C1109.91 646.021 1112.24 644.693 1112.26 641.38C1112.28 638.068 1109.98 634.028 1107.13 632.353C1104.27 630.68 1101.94 632.008 1101.92 635.321Z" fill="#2E373A"/>
<path d="M1144.66 655.731L1148.45 653.751C1149.44 653.268 1150.76 653.391 1152.2 654.239C1155.24 656.017 1157.68 660.313 1157.66 663.832C1157.65 665.476 1157.1 666.66 1156.22 667.274L1152.01 669.486C1151.03 669.91 1149.76 669.767 1148.36 668.949C1145.33 667.169 1142.89 662.874 1142.91 659.353C1142.92 657.527 1143.59 656.269 1144.66 655.729L1144.66 655.731Z" fill="#2E373A"/>
<path d="M1142.91 659.355C1142.89 662.876 1145.33 667.171 1148.36 668.951C1151.4 670.732 1153.87 669.319 1153.9 665.798C1153.92 662.278 1151.48 657.981 1148.44 656.203C1145.41 654.424 1142.93 655.835 1142.91 659.355V659.355Z" fill="#555E61"/>
<path d="M1143.14 659.547C1143.12 662.857 1145.41 666.899 1148.27 668.574C1151.12 670.247 1153.45 668.919 1153.48 665.608C1153.5 662.298 1151.2 658.256 1148.34 656.581C1145.49 654.908 1143.16 656.236 1143.14 659.547Z" fill="#2E373A"/>
<path d="M1099.72 628.77C1099.87 627.303 1100.69 623.133 1100.99 621.935C1101.28 620.735 1102.77 619.176 1103.78 618.348C1104.78 617.52 1109.05 614.084 1114.5 611.774C1119.95 609.467 1123.49 609.894 1126.35 610.422C1129.22 610.95 1140.36 615.968 1140.36 615.968C1140.36 615.968 1143.13 616.038 1145.03 616.079C1145.17 615.824 1145.45 615.437 1145.82 615.363C1146.39 615.251 1149 615.038 1149.51 615.066C1150.02 615.094 1150.6 615.495 1150.63 615.778C1150.66 615.975 1150.47 616.736 1150.36 617.172C1152.39 618.392 1162.42 624.628 1166.11 627.167C1170.02 629.86 1176.97 635.545 1176.97 635.545L1176.96 636.319L1178.34 637.712C1178.34 637.712 1180.26 639.455 1180.68 640.313C1181.11 641.17 1181.66 642.742 1181.72 643.394C1181.78 644.047 1181.96 644.517 1181.96 644.517C1181.96 644.517 1182.04 645.23 1182.09 645.719C1182.15 646.209 1182.14 648.164 1182.14 648.164C1182.14 648.164 1182.73 648.945 1182.72 649.728C1182.72 650.511 1182.49 653.34 1182.47 653.767C1182.45 654.193 1181.93 655.068 1180.71 656.424C1179.48 657.781 1178.64 658.267 1178.42 658.264C1178.19 658.262 1177.56 658.277 1175.99 659.265C1174.42 660.253 1169.29 663.072 1168.7 663.437C1168.11 663.799 1166.9 664.952 1166.16 665.396C1165.43 665.839 1162.08 667.286 1160.69 667.541C1159.31 667.798 1158.24 667.918 1156.13 666.925C1156.13 666.925 1154.56 662.954 1152.93 660.312C1151.25 657.6 1148.96 655.733 1146.35 655.008C1143.75 654.283 1140.63 656.002 1142.39 659.881C1142.39 659.881 1141.32 659.76 1140.72 659.436C1140.13 659.112 1114.72 644.237 1114.72 644.237L1113.64 642.353C1113.64 642.353 1112.45 638.409 1110.53 635.398C1108.6 632.386 1105.98 630.815 1103.92 630.595C1101.87 630.376 1100.69 632.452 1101.58 635.753L1101.51 635.821C1101.51 635.821 1100.64 634.521 1100.19 633.075C1099.74 631.627 1099.58 630.233 1099.73 628.766L1099.72 628.77Z" fill="#E1E8EC"/>
<g style="mix-blend-mode:multiply" opacity="0.08">
<path d="M1179.35 647.909L1179.65 648.764L1179.35 647.909Z" fill="black"/>
</g>
<g style="mix-blend-mode:multiply" opacity="0.08">
<path d="M1099.72 628.769C1099.83 627.727 1100.27 625.32 1100.63 623.583C1100.8 624.627 1101.14 625.052 1101.45 625.323C1101.82 625.637 1102.5 625.499 1102.69 625.528C1102.89 625.558 1104.24 626.266 1104.24 626.266C1104.24 626.266 1104.2 625.765 1104.29 625.722L1103.06 625.121C1103.06 625.121 1101.89 623.318 1101.89 622.937C1101.89 622.603 1101.23 621.841 1101.07 621.658C1101.42 620.71 1102.39 619.603 1103.24 618.814C1102.93 619.436 1102.47 620.593 1102.76 621.623C1103.19 623.12 1105.23 624.697 1106.63 625.462C1108.04 626.227 1116.84 631.079 1116.84 631.079L1118.83 632.127C1118.72 632.49 1118.64 632.863 1118.64 633.144C1118.63 633.885 1119.2 635.276 1119.51 635.385C1119.81 635.493 1119.93 635.224 1120.22 634.883C1120.51 634.543 1121.21 633.728 1121.29 633.628C1121.31 633.594 1121.34 633.532 1121.36 633.453L1133.24 639.685L1148.23 647.687C1148.23 647.687 1154.87 650.54 1156.32 651.076C1157.78 651.612 1160.49 651.98 1162.38 651.641C1164.28 651.302 1169.21 649.241 1173.33 646.753C1177.45 644.266 1179.61 641.485 1179.81 641.012C1179.97 640.62 1179.83 639.651 1179.42 638.757C1179.93 639.287 1180.48 639.901 1180.68 640.314C1181.1 641.172 1181.66 642.743 1181.72 643.396C1181.75 643.678 1181.79 643.925 1181.84 644.115C1181.51 644.248 1180.95 644.936 1180.95 644.936L1179.66 646.989L1179.59 647.18L1178.37 647.759C1178.37 647.759 1178.35 650.404 1178.25 650.759C1178.14 651.115 1178.06 651.39 1177.44 651.873C1176.82 652.356 1169.52 656.636 1169.27 656.777C1169.02 656.917 1168.69 656.536 1168.69 656.536L1167.33 654.588L1167.07 654.827L1167.02 654.762C1167.02 654.762 1160.27 655.282 1160.22 655.281C1160.17 655.281 1155.78 654.042 1155.75 653.994C1155.72 653.949 1153.27 653.312 1153.37 653.583C1153.48 653.855 1155.62 654.737 1156.3 655.168C1156.98 655.599 1157.29 656.505 1158.51 656.892C1159.74 657.279 1161.74 657.412 1163.19 657.27C1164.64 657.127 1167.8 655.814 1167.8 655.814C1167.8 655.814 1168.42 656.713 1168.63 657.065C1168.84 657.417 1169.03 657.467 1169.32 657.336C1169.62 657.207 1172.65 655.607 1173.99 654.806C1175.33 654.004 1177.75 652.567 1178.46 651.857C1179.17 651.146 1179.64 648.764 1179.64 648.764C1179.64 648.764 1181.42 647.205 1181.65 646.514C1181.79 646.119 1181.94 645.608 1182.02 645.14C1182.04 645.334 1182.07 645.542 1182.09 645.721C1182.15 646.21 1182.13 648.165 1182.13 648.165C1182.13 648.165 1182.72 648.946 1182.71 649.729C1182.71 650.512 1182.49 653.342 1182.47 653.768C1182.44 654.195 1181.93 655.069 1180.7 656.425C1179.47 657.782 1178.63 658.268 1178.41 658.265C1178.19 658.264 1177.55 658.279 1175.98 659.266C1174.41 660.254 1169.28 663.074 1168.69 663.438C1168.1 663.8 1166.89 664.953 1166.16 665.398C1165.42 665.841 1162.07 667.287 1160.69 667.542C1159.3 667.799 1158.23 667.919 1156.13 666.926C1156.13 666.926 1154.55 662.955 1152.92 660.314C1151.25 657.601 1148.95 655.734 1146.35 655.009C1143.74 654.284 1140.62 656.003 1142.38 659.882C1142.38 659.882 1142.38 659.882 1142.37 659.882L1142.36 659.827L1114.7 644.206L1114.11 643.176L1113.88 642.784L1113.63 642.356C1113.63 642.356 1112.44 638.412 1110.52 635.401C1108.59 632.389 1105.97 630.818 1103.92 630.599C1101.86 630.379 1100.68 632.456 1101.58 635.756L1101.51 635.824C1101.51 635.824 1100.63 634.524 1100.18 633.078C1099.73 631.631 1099.57 630.236 1099.72 628.769L1099.72 628.769ZM1171.31 658.153C1175.31 656.024 1178.75 653.51 1179.88 652.487C1181 651.465 1181.4 650.496 1181.4 650.496C1181.4 650.496 1178.17 652.553 1176.41 653.647C1174.64 654.741 1169.88 657.374 1168.42 658.203C1166.96 659.032 1163.98 660.955 1163.98 660.955C1163.98 660.955 1167.31 660.282 1171.31 658.155L1171.31 658.153ZM1115.1 642.382C1115.97 642.881 1140 656.139 1140 656.139C1140 656.139 1140.97 656.585 1141.09 656.146C1141.09 656.144 1141.09 656.141 1141.09 656.137C1140.88 655.584 1140.24 654.256 1138.82 653.364C1137 652.213 1133.12 650.16 1129.44 648.089C1125.98 646.138 1118.32 641.666 1114.74 642.088C1114.85 642.21 1114.97 642.309 1115.1 642.382V642.382ZM1113.79 633.248L1131.55 642.801L1148.14 650.874L1152.98 652.967L1152.44 652.389L1148.28 650.622L1131.83 642.471L1113.67 632.722L1113.79 633.246L1113.79 633.248Z" fill="black"/>
</g>
<g style="mix-blend-mode:multiply" opacity="0.2">
<g style="mix-blend-mode:multiply" opacity="0.2">
<path d="M1130.41 641.05C1130.56 641.04 1130.67 640.935 1130.74 640.74C1130.86 640.431 1130.68 640.14 1130.22 639.877C1129.69 639.576 1127.84 638.592 1127.44 638.383C1127.33 638.327 1127.23 638.302 1127.15 638.307C1126.95 638.321 1126.87 638.512 1126.86 638.687C1126.85 638.802 1126.86 639.202 1127.31 639.507C1127.56 639.675 1128.57 640.188 1129.31 640.56C1129.69 640.75 1129.99 640.902 1130.05 640.938C1130.19 641.021 1130.3 641.057 1130.41 641.049L1130.41 641.05ZM1127.16 638.389C1127.23 638.384 1127.31 638.407 1127.4 638.455C1127.8 638.664 1129.65 639.648 1130.18 639.947C1130.6 640.189 1130.76 640.446 1130.67 640.711C1130.56 640.995 1130.38 641.043 1130.09 640.868C1130.03 640.83 1129.73 640.678 1129.35 640.486C1128.61 640.114 1127.6 639.605 1127.36 639.439C1126.94 639.159 1126.93 638.797 1126.94 638.693C1126.94 638.625 1126.97 638.403 1127.16 638.389V638.389Z" fill="black"/>
</g>
</g>
<g style="mix-blend-mode:multiply" opacity="0.2">
<g style="mix-blend-mode:multiply" opacity="0.2">
<path d="M1145.97 648.904C1146.12 648.893 1146.24 648.788 1146.31 648.593C1146.42 648.285 1146.24 647.993 1145.78 647.731C1145.25 647.43 1143.4 646.446 1143 646.236C1142.9 646.181 1142.8 646.155 1142.72 646.163C1142.52 646.176 1142.43 646.367 1142.42 646.542C1142.41 646.657 1142.42 647.056 1142.88 647.362C1143.13 647.53 1144.14 648.041 1144.88 648.415C1145.26 648.605 1145.56 648.757 1145.62 648.793C1145.76 648.876 1145.87 648.913 1145.97 648.906L1145.97 648.904ZM1142.72 646.242C1142.79 646.237 1142.87 646.26 1142.96 646.308C1143.36 646.517 1145.21 647.502 1145.74 647.801C1146.16 648.042 1146.33 648.299 1146.23 648.564C1146.13 648.848 1145.95 648.896 1145.66 648.722C1145.59 648.683 1145.29 648.532 1144.91 648.34C1144.18 647.967 1143.17 647.458 1142.92 647.292C1142.5 647.013 1142.5 646.65 1142.5 646.546C1142.51 646.48 1142.54 646.256 1142.72 646.242V646.242Z" fill="black"/>
</g>
</g>
<g style="mix-blend-mode:multiply" opacity="0.07">
<path style="mix-blend-mode:multiply" opacity="0.07" d="M1147.51 654.429C1142.73 652.325 1141.21 655.708 1141.09 656.147C1140.97 656.586 1140 656.14 1140 656.14C1140 656.14 1115.97 642.881 1115.1 642.383C1114.22 641.884 1113.78 640.23 1112.64 637.498C1111.49 634.766 1108.72 631.674 1106.55 630.553C1106.5 630.528 1106.44 630.499 1106.39 630.47L1108.63 627.432C1108.63 627.432 1110.28 629.05 1111.24 630.053C1112.21 631.058 1113.67 632.725 1113.67 632.725L1113.79 633.249L1131.55 642.802L1148.14 650.874L1152.98 652.967L1152.83 652.803L1153.05 652.903L1151.1 656.727C1150.15 655.879 1148.98 655.079 1147.51 654.429L1147.51 654.429Z" fill="url(#paint0_linear_3894_16660)"/>
</g>
<g style="mix-blend-mode:multiply" opacity="0.12">
<path d="M1106.55 630.555C1108.72 631.676 1111.49 634.77 1112.64 637.5C1113.78 640.232 1114.22 641.886 1115.1 642.385C1115.97 642.883 1140 656.142 1140 656.142C1140 656.142 1140.97 656.588 1141.09 656.149C1141.21 655.71 1142.73 652.327 1147.51 654.431C1152.29 656.535 1153.88 660.218 1154.85 661.964C1155.62 663.336 1156.7 666.187 1157.12 667.342C1156.82 667.233 1156.49 667.098 1156.13 666.927C1156.13 666.927 1154.56 662.956 1152.93 660.314C1151.25 657.602 1148.95 655.735 1146.35 655.01C1143.75 654.284 1140.63 656.004 1142.39 659.883C1142.39 659.883 1142.38 659.883 1142.37 659.883L1142.36 659.827L1114.7 644.206L1113.64 642.355C1113.64 642.355 1112.45 638.411 1110.52 635.399C1108.6 632.388 1105.98 630.817 1103.92 630.597C1101.86 630.378 1100.69 632.454 1101.58 635.755L1101.51 635.823C1101.51 635.823 1101.02 635.099 1100.59 634.13C1099.97 627.543 1105.15 629.829 1106.55 630.553L1106.55 630.555Z" fill="black"/>
</g>
<g style="mix-blend-mode:multiply" opacity="0.07">
<path d="M1128.92 626.602C1128.92 626.602 1130.73 626.365 1132.2 627.206C1133.66 628.046 1142.28 632.879 1147.19 635.915C1152.09 638.949 1159.52 644.018 1161.47 645.627C1163.42 647.237 1156.51 647.61 1156.46 647.609C1156.4 647.609 1151.85 645.36 1151.85 645.36L1127.71 629.878L1128.92 626.602V626.602Z" fill="black"/>
</g>
<g style="mix-blend-mode:multiply" opacity="0.07">
<path d="M1158.79 622.924C1154.52 620.209 1150.36 617.602 1148.79 616.779C1148.79 616.779 1147.46 616.281 1146.73 616.169C1146.67 616.159 1146.66 616.138 1146.68 616.108C1147.6 616.121 1149.02 616.395 1150.08 617.005C1151.15 617.622 1162.2 624.475 1166.11 627.167C1170.02 629.859 1176.97 635.545 1176.97 635.545L1176.96 635.94L1172.56 632.655C1172.56 632.655 1163.06 625.641 1158.79 622.926L1158.79 622.924Z" fill="black"/>
</g>
<g style="mix-blend-mode:multiply" opacity="0.12">
<path d="M1152.44 652.391L1148.28 650.627L1131.83 642.476L1113.67 632.725L1113.61 632.47L1131.79 642.234L1148.24 650.386L1152.4 652.15L1153.3 653.106L1152.99 652.969L1152.44 652.391Z" fill="black"/>
</g>
<path style="mix-blend-mode:multiply" opacity="0.07" d="M1141.09 656.147C1140.97 656.586 1140 656.14 1140 656.14C1140 656.14 1115.97 642.881 1115.1 642.383C1114.97 642.31 1114.85 642.212 1114.74 642.088C1118.32 641.667 1125.98 646.138 1129.44 648.09C1133.12 650.163 1137 652.214 1138.82 653.365C1140.24 654.257 1140.88 655.584 1141.09 656.137C1141.09 656.141 1141.09 656.143 1141.09 656.147Z" fill="url(#paint1_linear_3894_16660)"/>
<path style="mix-blend-mode:multiply" opacity="0.12" d="M1163.98 660.955C1163.98 660.955 1167.31 660.282 1171.31 658.155C1175.31 656.026 1178.75 653.512 1179.88 652.49C1181.01 651.467 1181.41 650.499 1181.41 650.499C1181.41 650.499 1178.17 652.555 1176.41 653.649C1174.64 654.744 1169.88 657.376 1168.42 658.205C1166.96 659.034 1163.98 660.957 1163.98 660.957L1163.98 660.955Z" fill="url(#paint2_linear_3894_16660)"/>
<path style="mix-blend-mode:multiply" opacity="0.08" d="M1155.85 654.915C1156.03 655.009 1156.19 655.093 1156.3 655.166C1156.98 655.597 1157.29 656.503 1158.52 656.89C1159.74 657.277 1161.74 657.411 1163.19 657.268C1164.65 657.125 1167.81 655.812 1167.81 655.812C1167.81 655.812 1168.43 656.711 1168.63 657.063C1168.84 657.415 1169.03 657.465 1169.33 657.335C1169.62 657.206 1172.66 655.605 1173.99 654.804C1175.33 654.003 1177.76 652.565 1178.46 651.855C1179.17 651.144 1179.65 648.762 1179.65 648.762C1179.65 648.762 1181.42 647.203 1181.65 646.513C1181.79 646.117 1181.94 645.606 1182.02 645.138C1182.05 645.332 1182.07 645.541 1182.09 645.719C1182.15 646.208 1182.14 648.163 1182.14 648.163C1182.14 648.163 1182.72 648.944 1182.72 649.727C1182.71 650.51 1182.49 653.34 1182.47 653.766C1182.44 654.193 1181.93 655.068 1180.7 656.423C1179.47 657.781 1178.63 658.267 1178.41 658.263C1178.19 658.262 1177.56 658.277 1175.98 659.264C1174.41 660.252 1169.28 663.072 1168.69 663.436C1168.1 663.798 1166.89 664.951 1166.16 665.396C1165.42 665.839 1162.07 667.286 1160.69 667.541C1160.04 667.66 1159.47 667.751 1158.82 667.711C1157.81 667.352 1156.83 667.003 1156.05 666.721C1155.85 666.236 1155.31 664.938 1154.62 663.489L1155.85 654.915V654.915ZM1171.31 658.153C1175.31 656.024 1178.75 653.51 1179.88 652.487C1181.01 651.465 1181.41 650.497 1181.41 650.497C1181.41 650.497 1178.17 652.553 1176.41 653.647C1174.64 654.742 1169.88 657.374 1168.42 658.203C1166.96 659.032 1163.98 660.955 1163.98 660.955C1163.98 660.955 1167.31 660.282 1171.31 658.155L1171.31 658.153Z" fill="url(#paint3_linear_3894_16660)"/>
<path style="mix-blend-mode:multiply" opacity="0.08" d="M1180.94 644.935L1179.66 646.988L1179.58 647.179L1178.37 647.757C1178.37 647.757 1178.35 650.402 1178.24 650.758C1178.14 651.113 1178.06 651.388 1177.44 651.871C1176.82 652.355 1169.52 656.634 1169.27 656.775C1169.02 656.916 1168.69 656.534 1168.69 656.534L1167.33 654.586L1167.07 654.825L1167.02 654.761C1167.02 654.761 1160.27 655.28 1160.22 655.28C1160.18 655.279 1156.86 654.343 1155.97 654.068L1156.15 652.787C1156.9 653.061 1160.55 653.744 1162.48 653.341C1164.42 652.937 1167.49 651.734 1170.53 650.194C1173.56 648.654 1177.16 646.324 1179.38 644.434C1180.86 643.178 1181.22 642.28 1181.3 641.818C1181.52 642.439 1181.69 643.045 1181.72 643.392C1181.74 643.675 1181.79 643.922 1181.84 644.112C1181.51 644.244 1180.94 644.933 1180.94 644.933L1180.94 644.935Z" fill="url(#paint4_linear_3894_16660)"/>
<path style="mix-blend-mode:multiply" opacity="0.08" d="M1179.35 647.909L1179.65 648.763L1179.35 647.909Z" fill="url(#paint5_linear_3894_16660)"/>
<path style="mix-blend-mode:multiply" opacity="0.3" d="M1179.35 647.909L1179.65 648.762C1179.65 648.762 1179.17 651.144 1178.46 651.855C1177.76 652.565 1175.33 654.003 1174 654.804C1172.66 655.605 1169.63 657.206 1169.33 657.334C1169.03 657.463 1168.84 657.415 1168.63 657.063C1168.43 656.711 1167.81 655.812 1167.81 655.812L1167.19 655.033L1166.84 655.047L1167.34 654.586L1168.69 656.534C1168.69 656.534 1169.03 656.917 1169.28 656.775C1169.53 656.634 1176.82 652.357 1177.44 651.871C1178.07 651.386 1178.14 651.113 1178.25 650.757C1178.36 650.402 1178.37 647.757 1178.37 647.757L1179.71 647.122L1179.35 647.909L1179.35 647.909Z" fill="url(#paint6_linear_3894_16660)"/>
<path style="mix-blend-mode:multiply" opacity="0.12" d="M1179.35 647.909L1179.65 648.762C1179.65 648.762 1179.17 651.144 1178.46 651.855C1177.76 652.565 1175.33 654.003 1174 654.804C1172.66 655.605 1169.63 657.206 1169.33 657.334C1169.03 657.463 1168.84 657.415 1168.63 657.063C1168.43 656.711 1167.81 655.812 1167.81 655.812L1167.19 655.033L1166.84 655.047L1167.34 654.586L1168.69 656.534C1168.69 656.534 1169.03 656.917 1169.28 656.775C1169.53 656.634 1176.82 652.357 1177.44 651.871C1178.07 651.386 1178.14 651.113 1178.25 650.757C1178.36 650.402 1178.37 647.757 1178.37 647.757L1179.71 647.122L1179.35 647.909L1179.35 647.909Z" fill="url(#paint7_linear_3894_16660)"/>
<g style="mix-blend-mode:screen" opacity="0.5">
<path d="M1176.24 637.105L1172.21 634.077L1176.03 637.409L1176.24 637.105Z" fill="white"/>
</g>
<g style="mix-blend-mode:multiply" opacity="0.1">
<path d="M1163.8 644.688L1159.22 641.504L1164.06 644.528L1163.8 644.688Z" fill="black"/>
</g>
<g style="mix-blend-mode:screen" opacity="0.5">
<path d="M1116.79 624.976C1116.79 624.976 1106.59 619.679 1105.63 619.292C1104.66 618.905 1103.79 618.822 1103.43 619L1116.79 625.763L1116.79 624.976V624.976Z" fill="white"/>
</g>
<g style="mix-blend-mode:multiply" opacity="0.07">
<path d="M1132.97 615.922L1132.63 615.541L1119 610.667L1133.18 615.404L1133.72 615.927L1132.97 615.922Z" fill="black"/>
</g>
<g style="mix-blend-mode:multiply" opacity="0.08">
<path style="mix-blend-mode:multiply" opacity="0.08" d="M1100.63 623.584C1100.8 624.628 1101.13 625.053 1101.45 625.324C1101.81 625.637 1102.49 625.499 1102.69 625.529C1102.89 625.559 1104.24 626.267 1104.24 626.267C1104.24 626.267 1104.23 626.174 1104.23 626.066C1104.27 626.127 1104.28 626.157 1104.28 626.157L1104.07 630.619C1104.02 630.611 1103.97 630.605 1103.92 630.599C1101.86 630.38 1100.68 632.456 1101.58 635.757L1101.51 635.825C1101.51 635.825 1100.63 634.525 1100.19 633.079C1099.74 631.631 1099.57 630.237 1099.72 628.77C1099.83 627.728 1100.27 625.321 1100.63 623.584L1100.63 623.584Z" fill="url(#paint8_linear_3894_16660)"/>
<path style="mix-blend-mode:multiply" opacity="0.08" d="M1103.06 625.122C1103.06 625.122 1101.89 623.319 1101.89 622.938C1101.89 622.604 1101.23 621.842 1101.07 621.659C1101.15 621.441 1101.27 621.212 1101.4 620.984C1101.93 622.206 1103.09 624.874 1103.55 625.307C1103.6 625.347 1103.64 625.387 1103.67 625.425L1103.06 625.124L1103.06 625.122Z" fill="url(#paint9_linear_3894_16660)"/>
</g>
<g style="mix-blend-mode:multiply" opacity="0.15">
<path d="M1119.63 633.427C1119.79 633.098 1120.84 631.406 1120.98 631.192C1121.05 631.069 1121.19 630.976 1121.33 630.961C1121.46 631.057 1121.43 631.25 1121.43 631.25C1121.43 631.25 1121.42 632.645 1121.42 632.922C1121.43 633.201 1121.37 633.527 1121.29 633.627C1121.21 633.727 1120.51 634.54 1120.22 634.881C1119.93 635.221 1119.81 635.491 1119.51 635.383C1119.51 634.949 1119.47 633.756 1119.63 633.429L1119.63 633.427Z" fill="black"/>
</g>
<g style="mix-blend-mode:multiply" opacity="0.08">
<path d="M1119.51 634.181C1119.49 634.626 1119.51 635.131 1119.51 635.383C1119.25 635.29 1118.81 634.288 1118.67 633.531C1118.95 633.944 1119.31 634.113 1119.51 634.181Z" fill="black"/>
</g>
<g style="mix-blend-mode:multiply" opacity="0.2">
<g style="mix-blend-mode:multiply" opacity="0.2">
<path d="M1181.42 643.827L1181.48 643.814C1180.98 641.6 1179.21 640.823 1179.19 640.815L1179.17 640.872C1179.19 640.879 1180.92 641.647 1181.42 643.828L1181.42 643.827Z" fill="black"/>
</g>
</g>
<g style="mix-blend-mode:multiply" opacity="0.2">
<path d="M1152.51 658.516L1154.31 657.64L1155.99 655.944L1156.21 654.568L1156.28 654.578L1156.04 655.972L1154.35 657.685L1152.54 658.571L1151.89 658.84C1151.87 658.823 1151.86 658.808 1151.85 658.79L1152.51 658.516V658.516Z" fill="black"/>
</g>
<g style="mix-blend-mode:multiply" opacity="0.2">
<g style="mix-blend-mode:multiply" opacity="0.2">
<path d="M1163.24 661.897L1163.3 661.898L1163.33 657.144L1162.85 656.216C1162.9 656.175 1162.96 655.965 1162.85 654.612C1162.71 652.884 1161.26 651.182 1161.24 651.164L1161.2 651.204C1161.21 651.221 1162.65 652.91 1162.79 654.617C1162.89 655.852 1162.84 656.108 1162.82 656.159L1162.69 656.033L1163.27 657.159L1163.24 661.897Z" fill="black"/>
</g>
</g>
<g style="mix-blend-mode:multiply" opacity="0.2">
<path d="M1145.78 653.876C1145.78 653.876 1146.31 653.142 1146.73 652.689C1147.16 652.24 1148.04 650.938 1148.05 650.93L1148.24 650.51L1148.11 650.256L1148.12 647.74L1148.6 647.102L1148.65 647.138L1148.19 647.759L1148.17 650.235L1148.31 650.509L1148.1 650.959C1148.1 650.972 1147.2 652.279 1146.78 652.731C1146.36 653.18 1145.83 653.905 1145.83 653.905L1145.45 654.856C1145.42 654.856 1145.4 654.854 1145.38 654.852L1145.78 653.874L1145.78 653.876Z" fill="black"/>
</g>
<g style="mix-blend-mode:multiply" opacity="0.2">
<path d="M1132.43 653.907L1131.88 652.794L1131.02 651.638L1131.01 651.63L1131.01 651.001C1131.02 650.991 1131.27 649.978 1131.25 649.136C1131.23 648.353 1131.2 645.723 1131.29 644.626C1131.38 643.563 1131.54 642.837 1131.54 642.83L1131.78 642.414L1131.7 642.175L1131.7 642.167C1131.7 642.144 1132.19 639.867 1133.58 639.183L1133.6 639.238C1132.29 639.886 1131.79 642.018 1131.76 642.171L1131.85 642.422L1131.6 642.849C1131.59 642.912 1131.43 643.618 1131.35 644.632C1131.26 645.727 1131.29 648.353 1131.31 649.137C1131.33 649.986 1131.07 651.007 1131.07 651.01L1131.07 651.611L1131.93 652.762L1132.5 653.915L1132.11 654.418C1132.1 654.409 1132.08 654.397 1132.06 654.388L1132.43 653.908L1132.43 653.907Z" fill="black"/>
</g>
<g style="mix-blend-mode:multiply" opacity="0.2">
<g style="mix-blend-mode:multiply" opacity="0.2">
<path d="M1115.26 643.377L1115.32 643.361L1115.16 642.781L1115.16 642.341C1115.16 642.332 1115.2 641.251 1115.18 639.626C1115.16 638.003 1115.55 634.259 1115.55 634.221L1115.7 633.676L1115.81 633.119C1116.08 631.655 1117.42 630.427 1117.43 630.416L1117.39 630.37C1117.37 630.381 1116.02 631.624 1115.74 633.107L1115.64 633.662L1115.49 634.209C1115.49 634.251 1115.1 637.999 1115.12 639.626C1115.14 641.249 1115.1 642.33 1115.1 642.341L1115.1 642.794L1115.26 643.377Z" fill="black"/>
</g>
</g>
<g style="mix-blend-mode:multiply" opacity="0.2">
<path d="M1105.52 626.081C1105.54 626.081 1107.89 626.263 1110.13 628.713L1110.09 628.754C1107.86 626.321 1105.54 626.144 1105.51 626.142L1104.42 626.013L1104.03 629.447L1104.63 630.721C1104.61 630.715 1104.58 630.709 1104.55 630.703L1103.96 629.458L1104.37 625.945L1105.52 626.079L1105.52 626.081Z" fill="black"/>
</g>
<g style="mix-blend-mode:multiply" opacity="0.2">
<path d="M1133.38 627.916C1132.83 627.603 1132.41 627.366 1132.18 627.233C1130.74 626.407 1128.94 626.631 1128.92 626.633L1128.91 626.572C1128.93 626.57 1130.3 626.399 1131.62 626.902L1131.6 626.881C1133.79 624.714 1135.38 623.15 1139.47 620.652C1143.52 618.182 1148.53 616.829 1148.58 616.816L1149.72 616.823C1149.77 616.842 1149.81 616.863 1149.85 616.884L1148.59 616.877C1148.43 616.921 1143.5 618.269 1139.5 620.705C1135.42 623.196 1133.84 624.758 1131.65 626.915C1131.84 626.988 1132.03 627.077 1132.21 627.18C1132.45 627.315 1132.86 627.55 1133.42 627.863C1136.31 629.502 1143.08 633.338 1147.2 635.888C1150 637.617 1153.72 640.079 1156.74 642.157C1156.74 642.138 1156.75 642.119 1156.76 642.102L1156.76 642.094C1156.79 642.066 1159.23 639.243 1165.18 635.946C1169.27 633.681 1171.51 632.791 1173.4 632.675C1173.42 632.695 1173.45 632.714 1173.47 632.733C1171.58 632.829 1169.35 633.71 1165.21 636C1159.37 639.234 1156.92 642.01 1156.81 642.129C1156.81 642.149 1156.8 642.17 1156.79 642.191C1158.9 643.647 1160.66 644.911 1161.49 645.601L1161.46 645.648C1160.62 644.96 1158.87 643.702 1156.77 642.252C1156.51 643.077 1156.6 644.463 1156.6 644.478L1156.54 644.482C1156.54 644.467 1156.44 643.05 1156.72 642.213C1153.7 640.133 1149.97 637.668 1147.17 635.937C1143.05 633.387 1136.28 629.551 1133.39 627.912L1133.38 627.916Z" fill="black"/>
</g>
<g style="mix-blend-mode:multiply" opacity="0.15">
<path d="M1150.08 617.005C1149 616.388 1147.56 616.113 1146.65 616.108C1146.62 616.107 1146.59 616.107 1146.55 616.107C1146.6 615.95 1146.7 615.818 1146.92 615.728C1147.36 615.551 1148.84 615.293 1149.8 615.323C1150.23 615.337 1150.48 615.572 1150.63 615.829C1150.63 616.083 1150.46 616.768 1150.36 617.17C1150.23 617.097 1150.14 617.039 1150.08 617.005Z" fill="black"/>
</g>
<path d="M1119.51 635.234C1119.5 634.722 1119.48 633.724 1119.63 633.427C1119.79 633.098 1120.84 631.406 1120.97 631.193C1121.03 631.108 1121.11 631.04 1121.2 630.999C1121.21 631.054 1121.2 631.097 1121.2 631.097C1121.2 631.097 1121.18 632.493 1121.19 632.772C1121.2 633.048 1121.13 633.376 1121.05 633.476C1120.98 633.576 1120.28 634.389 1119.99 634.73C1119.78 634.97 1119.66 635.172 1119.51 635.235L1119.51 635.234Z" fill="black"/>
<path d="M1150.06 616.995C1148.99 616.384 1147.55 616.113 1146.64 616.107C1146.62 616.107 1146.59 616.107 1146.55 616.107C1146.6 615.95 1146.7 615.818 1146.92 615.728C1147.31 615.569 1148.56 615.342 1149.5 615.323C1150.3 615.495 1150.28 615.931 1150.28 616.132C1150.28 616.221 1150.18 616.598 1150.06 616.997L1150.06 616.995Z" fill="url(#paint10_linear_3894_16660)"/>
<path d="M1119.5 634.829C1119.5 635.052 1119.5 635.251 1119.5 635.382C1119.35 635.33 1119.14 634.97 1118.97 634.53C1119.14 634.649 1119.35 634.756 1119.5 634.829V634.829Z" fill="#333E40"/>
<path d="M1158.84 666.523C1160.23 666.632 1161.72 666.396 1162.6 666.102C1162.6 666.102 1164.3 664.304 1164.79 663.59C1165.28 662.875 1166.18 662.365 1166.69 662.152C1167.21 661.941 1171.54 660.225 1174.93 658.142C1179.06 655.609 1180.02 654.599 1180.48 654.259C1180.94 653.917 1181.27 653.776 1181.53 653.977C1181.71 654.124 1181.92 654.302 1182.23 654.427C1181.97 654.907 1181.48 655.57 1180.7 656.426C1179.47 657.783 1178.64 658.269 1178.41 658.266C1178.19 658.264 1177.56 658.279 1175.99 659.267C1174.41 660.254 1169.29 663.074 1168.69 663.438C1168.1 663.801 1166.89 664.954 1166.16 665.398C1165.42 665.841 1162.08 667.288 1160.69 667.543C1159.31 667.8 1158.24 667.92 1156.13 666.927C1156.13 666.927 1155.96 666.501 1155.68 665.837C1156.28 666.018 1157.75 666.438 1158.84 666.523L1158.84 666.523Z" fill="#273234"/>
<path d="M1157.47 653.93C1158.66 654.278 1161.31 654.519 1162.82 654.304C1164.34 654.09 1166.77 653.123 1168.47 652.375C1170.17 651.627 1175.53 648.758 1178.3 646.556C1180.6 644.726 1181.43 643.658 1181.52 642.502C1181.63 642.861 1181.7 643.178 1181.72 643.394C1181.75 643.73 1181.81 644.017 1181.86 644.216C1181.83 644.593 1181.73 645.097 1181.47 645.518C1180.99 646.304 1179.88 647.429 1179.34 647.917L1179.29 647.56C1179.29 647.56 1175.97 650.114 1173.24 651.631C1170.51 653.148 1167.27 654.616 1167.27 654.616L1167.19 655.033C1167.19 655.033 1164.85 656.166 1162.89 656.362C1160.92 656.558 1158.74 656.262 1157.99 655.975C1157.25 655.688 1156.38 654.759 1155.58 654.515C1154.78 654.271 1153.52 653.668 1153.28 653.534C1153.04 653.398 1152.4 652.429 1152.41 652.152C1152.41 652.152 1156.28 653.581 1157.47 653.932L1157.47 653.93Z" fill="#414E52"/>
<path d="M1159.06 663.026C1159.06 663.026 1159.6 662.407 1160.62 662.091C1161.64 661.775 1163.66 661.403 1165.24 660.94C1166.81 660.478 1170.41 659.13 1174.43 656.589C1178.46 654.047 1179.91 652.672 1180.75 651.904C1181.59 651.135 1182.21 649.738 1182.42 648.882C1182.42 648.882 1182.14 651.156 1181.73 651.866C1181.32 652.576 1181.04 652.671 1180.81 652.736C1180.58 652.801 1180.24 653.127 1179.9 653.453C1179.56 653.779 1176.77 655.826 1174.49 657.284C1171.3 659.329 1167.35 660.864 1166.63 661.105C1165.92 661.345 1165.48 661.78 1165.34 661.921C1165.19 662.063 1164.79 662.314 1164.2 662.434C1163.61 662.552 1160.44 663.231 1159.06 663.028L1159.06 663.026Z" fill="#414E52"/>
<path d="M1163.13 666.754L1163.31 666.473C1163.31 666.473 1164.32 665.952 1165.1 665.652C1165.77 665.39 1166.46 664.852 1167.12 664.136C1167.78 663.42 1168.25 662.749 1169.12 662.287C1169.98 661.826 1172.84 660.296 1174.47 659.309C1176.1 658.324 1177.23 657.551 1177.61 657.279C1178 657.004 1178.39 656.944 1178.71 657.007C1178.89 657.042 1178.85 657.616 1180.89 656.211C1180.83 656.281 1180.77 656.35 1180.7 656.422C1179.47 657.78 1178.64 658.265 1178.41 658.262C1178.19 658.261 1177.56 658.276 1175.99 659.263C1174.41 660.251 1169.29 663.071 1168.69 663.435C1168.1 663.797 1166.9 664.95 1166.16 665.395C1165.73 665.652 1164.43 666.247 1163.14 666.751L1163.13 666.754Z" fill="#404B4D"/>
<path d="M1161.35 654.547C1161.93 654.551 1162.43 654.524 1162.85 654.466C1163.97 654.308 1165.56 653.749 1166.9 653.211C1167.01 653.712 1167.12 654.504 1167.12 654.504L1167.09 654.699C1166.49 654.97 1164.41 655.86 1162.85 656.015C1162.41 656.06 1161.94 656.079 1161.45 656.076C1159.98 656.067 1158.63 655.85 1158.12 655.65C1157.82 655.532 1157.47 655.28 1157.1 655.014C1156.64 654.677 1156.17 654.329 1155.68 654.182C1154.91 653.952 1153.67 653.356 1153.46 653.236C1153.37 653.176 1152.8 652.632 1152.66 652.419C1153.61 652.766 1156.44 653.798 1157.42 654.087C1158.31 654.347 1159.95 654.541 1161.35 654.549L1161.35 654.547Z" fill="#B01120"/>
<path d="M1179.29 645.948C1180.72 644.719 1181.42 643.826 1181.62 642.902C1181.65 643.045 1181.66 643.204 1181.68 643.381C1181.68 643.462 1181.57 644.688 1181.18 645.34C1180.87 645.837 1180.01 646.821 1179.43 647.419L1179.41 647.322L1179.29 645.948L1179.29 645.948Z" fill="#B01120"/>
<path d="M1166.51 653.368L1166.59 654.309C1166.59 654.309 1164.93 655.03 1163.65 655.216L1163.66 654.308C1164.54 654.093 1165.56 653.736 1166.5 653.37L1166.51 653.368Z" fill="#8A0000"/>
<path d="M1161.35 654.547C1161.72 654.55 1162.06 654.539 1162.36 654.516L1162.36 655.386C1162.36 655.386 1159.94 655.481 1159.07 655.366C1158.33 655.268 1158.06 654.673 1157.96 654.215C1158.88 654.407 1160.2 654.54 1161.35 654.547V654.547Z" fill="#8A0000"/>
<path style="mix-blend-mode:screen" opacity="0.5" d="M1161.35 654.547C1161.93 654.551 1162.43 654.524 1162.85 654.466C1163.97 654.308 1165.56 653.749 1166.9 653.211C1167.01 653.712 1167.12 654.504 1167.12 654.504L1167.09 654.699C1166.49 654.97 1164.41 655.86 1162.85 656.015C1162.41 656.06 1161.94 656.079 1161.45 656.076C1159.98 656.067 1158.63 655.85 1158.12 655.65C1157.82 655.532 1157.47 655.28 1157.1 655.014C1156.64 654.677 1156.17 654.329 1155.68 654.182C1154.91 653.952 1153.67 653.356 1153.46 653.236C1153.37 653.176 1152.8 652.632 1152.66 652.419C1153.61 652.766 1156.44 653.798 1157.42 654.087C1158.31 654.347 1159.95 654.541 1161.35 654.549L1161.35 654.547Z" fill="url(#paint11_linear_3894_16660)"/>
<path d="M1100.98 621.933C1101.15 621.268 1101.67 620.496 1102.29 619.796C1102.08 620.656 1101.94 621.921 1102.38 622.876C1102.97 624.139 1105.58 626.102 1105.58 626.102L1104.25 626.274C1104.25 626.274 1103.61 625.775 1103.1 625.414C1102.59 625.05 1102.56 625.23 1102.19 625.182C1101.81 625.134 1101.38 624.713 1101.1 624.188C1100.92 623.855 1100.82 623.278 1100.77 622.898C1100.85 622.495 1100.93 622.16 1100.98 621.933V621.933Z" fill="#414E52"/>
<path d="M1099.99 632.386C1100.36 633.012 1100.92 633.482 1101.28 633.734C1101.28 633.96 1101.3 634.195 1101.32 634.44C1100.93 634.098 1100.6 633.768 1100.32 633.478C1100.27 633.347 1100.23 633.212 1100.18 633.077C1100.11 632.845 1100.05 632.615 1099.99 632.386V632.386Z" fill="#4D585A"/>
<path d="M1141.92 658.359L1113.83 642.694L1113.64 642.355C1113.64 642.355 1113.58 642.178 1113.48 641.87L1141.88 657.639C1141.87 657.866 1141.88 658.105 1141.92 658.359L1141.92 658.359Z" fill="#4D585A"/>
<path d="M1155.14 664.61C1155.01 664.332 1154.88 664.039 1154.74 663.739C1158.01 664.652 1162.64 663.887 1162.64 663.887L1161.77 664.765C1161.77 664.765 1160.81 665.028 1159.04 665.011C1156.82 664.99 1155.14 664.612 1155.14 664.612L1155.14 664.61Z" fill="#4D585A"/>
<path d="M1118.64 633.133L1118.64 633.14C1118.63 633.62 1118.87 634.371 1119.12 634.873C1117.62 634.088 1113.7 632.027 1113.16 631.72C1112.5 631.339 1112.04 630.957 1111.85 630.753C1111.66 630.547 1109.92 628.517 1109.92 628.517L1118.64 633.133L1118.64 633.133Z" fill="#4D585A"/>
<path d="M1118.66 633.448C1118.7 633.692 1118.77 633.972 1118.86 634.239L1115.48 632.593L1115.22 632.125L1112.54 630.67L1112.32 630.189L1118.66 633.449L1118.66 633.448Z" fill="url(#paint12_linear_3894_16660)"/>
<path d="M1100.98 621.933C1101.13 621.329 1101.58 620.632 1102.13 619.983C1101.96 620.791 1101.84 621.98 1102.28 622.925C1102.78 623.993 1104.64 625.514 1105.29 626.025L1104.28 626.155C1104.14 626.042 1103.6 625.629 1103.17 625.319C1102.87 625.107 1102.72 625.064 1102.57 625.063C1102.53 625.063 1102.49 625.067 1102.45 625.07C1102.41 625.074 1102.37 625.077 1102.32 625.077C1102.28 625.077 1102.24 625.076 1102.2 625.069C1101.89 625.029 1101.48 624.643 1101.2 624.133C1100.96 623.684 1100.86 622.743 1100.84 622.552C1100.9 622.304 1100.94 622.092 1100.98 621.933L1100.98 621.933Z" fill="url(#paint13_linear_3894_16660)"/>
<path d="M1100.98 621.933C1101.13 621.329 1101.58 620.632 1102.13 619.983C1101.96 620.791 1101.84 621.98 1102.28 622.925C1102.78 623.993 1104.64 625.514 1105.29 626.025L1104.28 626.155C1104.14 626.042 1103.6 625.629 1103.17 625.319C1102.87 625.107 1102.72 625.064 1102.57 625.063C1102.53 625.063 1102.49 625.067 1102.45 625.07C1102.41 625.074 1102.37 625.077 1102.32 625.077C1102.28 625.077 1102.24 625.076 1102.2 625.069C1101.89 625.029 1101.48 624.643 1101.2 624.133C1100.96 623.684 1100.86 622.743 1100.84 622.552C1100.9 622.304 1100.94 622.092 1100.98 621.933L1100.98 621.933Z" fill="url(#paint14_linear_3894_16660)"/>
<path d="M1160.69 662.311C1161.17 662.164 1161.89 661.998 1162.64 661.825C1163.13 661.712 1163.66 661.59 1164.18 661.461C1164.04 661.773 1163.81 662.152 1163.48 662.34C1162.5 662.533 1160.79 662.837 1159.64 662.83C1159.88 662.655 1160.24 662.451 1160.69 662.309L1160.69 662.311Z" fill="#B01120"/>
<path d="M1180.7 652.262C1180.74 652.226 1180.78 652.19 1180.82 652.156L1180.91 652.073C1181.26 651.751 1181.88 650.672 1182.1 650.107C1182.08 650.532 1181.74 651.512 1181.64 651.693C1181.3 652.271 1180.98 652.438 1180.81 652.494C1180.77 652.418 1180.73 652.338 1180.7 652.262L1180.7 652.262Z" fill="#B01120"/>
<path d="M1170.03 656.039C1170.09 656.039 1170.15 656.021 1170.21 655.987L1176.83 652.071C1177 651.97 1177.14 651.739 1177.14 651.538L1177.15 650.149C1177.15 649.968 1177.04 649.841 1176.88 649.84C1176.82 649.839 1176.76 649.858 1176.7 649.892L1170.09 653.808C1169.91 653.909 1169.78 654.14 1169.78 654.34L1169.77 655.73C1169.77 655.91 1169.88 656.036 1170.04 656.037L1170.03 656.039Z" fill="#404B4D"/>
<path d="M1169.91 655.733C1169.91 655.885 1170.01 655.946 1170.14 655.869L1176.76 651.953C1176.89 651.877 1177 651.689 1177 651.538L1177.01 650.148C1177.01 649.996 1176.9 649.935 1176.77 650.012L1170.16 653.928C1170.02 654.005 1169.92 654.192 1169.92 654.342L1169.91 655.731L1169.91 655.733Z" fill="white"/>
<path d="M1116.59 624.974C1117.14 624.255 1119.34 621.778 1123.5 619.168C1127.67 616.558 1132.64 615.541 1132.64 615.541L1133.55 615.763C1137.71 615.337 1140.36 615.966 1140.36 615.966C1140.36 615.966 1145.73 616.102 1146.64 616.108C1146.7 616.108 1146.75 616.108 1146.81 616.111C1145.2 616.385 1140.5 617.63 1136.7 619.773C1132.9 621.917 1129.98 624.806 1129.56 625.869C1129.14 626.931 1130.28 627.968 1130.28 627.968L1136.75 632.106L1147.01 638.309L1156.57 644.345L1157.09 645.774C1159.72 646.189 1162.95 645.062 1164.13 644.555C1165.96 643.77 1171.06 640.861 1174.1 638.821C1177.15 636.783 1176.96 636.321 1176.96 636.321L1178.33 637.713C1178.33 637.713 1178.43 637.803 1178.59 637.952L1179.36 639.521C1179.36 639.521 1179.75 640.329 1179.44 641.031C1179.13 641.732 1176.81 644.128 1173.35 646.255C1169.89 648.381 1164.14 651.197 1161.51 651.344C1158.87 651.491 1156.69 650.954 1155.56 650.404C1154.43 649.855 1148.42 647.326 1148.42 647.326L1133.5 639.38L1121.42 632.904C1121.42 632.583 1121.43 631.252 1121.43 631.252C1121.43 631.252 1121.48 630.96 1121.21 630.915C1120.94 630.872 1119.71 630.722 1119.46 630.863C1119.34 630.924 1119.17 631.229 1119.02 631.613L1118.07 631.106L1116.33 629.868C1114.79 627.783 1116.6 624.976 1116.6 624.976L1116.59 624.974Z" fill="#141C1E"/>
<path d="M1116.33 629.865C1116.17 629.651 1116.05 629.431 1115.96 629.204C1118.01 628.785 1127.11 626.926 1128.38 626.673C1128.75 626.601 1129.13 626.575 1129.48 626.577C1129.6 627.348 1130.29 627.964 1130.29 627.964L1130.35 628.007C1127.13 628.39 1119.02 630.245 1117.4 630.62L1116.33 629.865L1116.33 629.865Z" fill="url(#paint15_linear_3894_16660)"/>
<path d="M1156.57 644.343L1157.09 645.772L1158.15 651.166C1157.05 650.981 1156.16 650.694 1155.56 650.404C1155.51 650.377 1155.44 650.347 1155.37 650.312L1153.73 642.551L1156.57 644.345L1156.57 644.343Z" fill="#202D30"/>
<path d="M1153.36 642.934L1154.72 649.438L1148.75 646.811L1147.57 639.456L1153.36 642.934Z" fill="#303E42"/>
<path d="M1132.29 638.466L1122.32 633.106L1123.1 629.958C1125.49 629.457 1128.29 628.915 1130.16 628.675C1130.16 628.675 1130.48 628.678 1130.78 628.862C1131 629 1134.12 630.984 1135.67 631.972L1132.29 638.464L1132.29 638.466Z" fill="#303E42"/>
<path d="M1137.4 633.047L1145.9 638.164L1146.38 642.564L1145.22 645.319L1134.87 639.838L1137.4 633.047Z" fill="#303E42"/>
<path d="M1120.97 623.359C1123.07 621.674 1127.98 618.881 1131.61 617.479C1135.24 616.08 1140.45 615.968 1140.46 615.968C1141 615.981 1143.64 616.047 1145.33 616.084C1143.17 616.507 1139.49 617.502 1135.52 619.853C1130.46 622.846 1128.66 626.157 1128.66 626.157L1116.29 628.753C1116.88 627.054 1118.86 625.045 1120.97 623.359V623.359Z" fill="#303E42"/>
<path d="M1178.59 637.95L1178.86 638.498C1179.1 639.072 1179.37 640.006 1179.02 640.84C1178.8 641.37 1176.62 643.702 1173.11 645.857C1169.68 647.968 1164.79 650.299 1162.17 650.789L1160.15 646.169C1162.18 645.855 1163.91 645.147 1164.31 644.973C1166.25 644.14 1171.42 641.172 1174.36 639.2C1175.66 638.334 1177.08 637.07 1177.1 636.454L1178.34 637.709C1178.34 637.709 1178.44 637.799 1178.59 637.948L1178.59 637.95Z" fill="#303E42"/>
<path d="M1160.61 645.62L1160.61 645.662C1160.61 645.662 1158.85 646.405 1157.55 648.136L1157.09 645.772C1158.22 645.952 1159.47 645.842 1160.62 645.62L1160.61 645.62Z" fill="#202D30"/>
<path opacity="0.2" d="M1125.98 620.167C1127.85 619.134 1129.88 618.148 1131.61 617.479C1135.24 616.08 1140.45 615.968 1140.46 615.968C1141 615.981 1143.64 616.047 1145.33 616.084C1143.76 616.391 1141.38 617.004 1138.67 618.221C1135.51 618.482 1130.99 619.027 1125.98 620.169L1125.98 620.167Z" fill="white"/>
<path opacity="0.2" d="M1176.95 643.046C1176.08 642.295 1174.68 641.299 1172.59 640.345C1173.23 639.943 1173.83 639.556 1174.36 639.201C1175.65 638.335 1177.07 637.072 1177.1 636.456L1178.33 637.711C1178.33 637.711 1178.43 637.801 1178.59 637.95L1178.86 638.498C1179.1 639.072 1179.37 640.006 1179.02 640.84C1178.89 641.133 1178.17 641.982 1176.95 643.046L1176.95 643.046Z" fill="white"/>
<path d="M1144.76 660.551C1144.72 662.704 1146.2 665.346 1148.05 666.451C1149.9 667.556 1151.42 666.706 1151.46 664.553C1151.49 662.399 1150.02 659.757 1148.17 658.652C1146.31 657.547 1144.79 658.397 1144.76 660.551V660.551Z" fill="#838383"/>
<path d="M1103.74 636.358C1103.71 638.511 1105.18 641.153 1107.03 642.258C1108.88 643.363 1110.41 642.513 1110.44 640.36C1110.47 638.206 1109 635.564 1107.15 634.459C1105.3 633.354 1103.77 634.204 1103.74 636.358V636.358Z" fill="#838383"/>
<path d="M1146.67 661.729C1146.65 662.556 1147.22 663.571 1147.93 663.996C1148.64 664.42 1149.23 664.094 1149.24 663.266C1149.25 662.439 1148.69 661.424 1147.98 660.999C1147.26 660.575 1146.68 660.902 1146.67 661.729V661.729Z" fill="#222222"/>
<path d="M1105.65 637.535C1105.64 638.362 1106.2 639.378 1106.91 639.802C1107.62 640.227 1108.21 639.9 1108.22 639.073C1108.24 638.245 1107.67 637.23 1106.96 636.806C1106.25 636.381 1105.66 636.708 1105.65 637.535V637.535Z" fill="#222222"/>
<path d="M1070.75 601.713L1303.12 497.585M1303.12 497.585L1498.05 607.667M1303.12 497.585L1106.22 381.382" stroke="#6ACDB7" stroke-width="1.23231" stroke-linecap="round" stroke-linejoin="round" stroke-dasharray="12.44 12.44"/>
<path d="M1502.19 381.234L1350.23 296.565L1525.24 228.649L1674.75 317.915L1502.19 381.234Z" fill="#ECECEC"/>
<path d="M1350.23 310.741V296.564L1506.16 382.097V398.317L1350.23 310.741Z" fill="#B7BFC7"/>
<path d="M1452.64 192.685V69.7039L1365.64 99.4065L1365.87 225.072L1452.64 192.685Z" fill="#B1C6DB"/>
<path d="M1239.24 35.1264L1328.96 0.386134L1452.64 69.7649L1365.64 99.4096L1239.24 35.1264Z" fill="#E7EEF3"/>
<path d="M1239.24 157.641V35.1271L1365.64 99.4103L1365.87 224.597L1239.24 157.641Z" fill="#EBF3FE"/>
<path d="M1176.31 187.505V62.1049L1222.25 88.2977V212.377L1176.31 187.505Z" fill="#EBF3FE"/>
<path d="M1268.41 194.516L1268.41 70.8702L1222.25 88.2979V212.389L1268.41 194.516Z" fill="#B1C6DB"/>
<path d="M1176.31 62.1015L1219.1 46.1937L1268.48 70.8005L1222.26 88.3001L1176.31 62.1015Z" fill="#E7EEF3"/>
<path d="M1235.93 219.228V93.8282L1281.88 120.021V244.1L1235.93 219.228Z" fill="#EBF3FE"/>
<path d="M1328.03 226.24L1328.03 102.594L1281.88 120.021V244.112L1328.03 226.24Z" fill="#B1C6DB"/>
<path d="M1235.93 93.8246L1278.72 77.9169L1328.1 102.524L1281.88 120.023L1235.93 93.8246Z" fill="#E7EEF3"/>
<path d="M1380.7 298.562V216.169L1461.69 257.869L1461.74 340.634L1380.7 298.562Z" fill="#EBF3FE"/>
<path d="M1380.7 216.17L1426.98 201.496L1504.16 240.044L1461.69 257.865L1380.7 216.17Z" fill="#E7EEF3"/>
<path d="M1339.33 226.144V244.1" stroke="#9BA5B2" stroke-width="0.738856"/>
<path d="M1339.31 234.615C1334.77 234.755 1327.72 219.456 1339.2 189.302C1351.5 219.547 1344.13 234.615 1339.31 234.615Z" fill="#D4E2F5"/>
<path d="M1339.31 234.615C1339.23 234.697 1350.37 226.431 1339.2 189.302C1351.5 219.547 1344.13 234.615 1339.31 234.615Z" fill="#A7BAD1"/>
<path d="M1307.75 235.587V253.543" stroke="#9BA5B2" stroke-width="0.738856"/>
<path d="M1307.73 244.059C1303.19 244.198 1296.14 228.899 1307.61 198.745C1319.91 228.991 1312.55 244.059 1307.73 244.059Z" fill="#D4E2F5"/>
<path d="M1307.73 244.059C1307.65 244.14 1318.79 235.875 1307.61 198.745C1319.91 228.991 1312.55 244.059 1307.73 244.059Z" fill="#A7BAD1"/>
<path d="M1209.4 366.867V384.822" stroke="#9BA5B2" stroke-width="0.738856"/>
<path d="M1209.38 375.338C1204.85 375.478 1197.8 360.179 1209.27 330.025C1221.57 360.27 1214.2 375.338 1209.38 375.338Z" fill="#D4E2F5"/>
<path d="M1209.38 375.338C1209.3 375.42 1220.45 367.155 1209.27 330.025C1221.57 360.271 1214.2 375.338 1209.38 375.338Z" fill="#A7BAD1"/>
<path d="M1227.5 289.498L1227.54 192.664L1168.54 213.885V311.097L1227.5 289.498Z" fill="#B1C6DB"/>
<path d="M1046.75 156.493L1101.41 137.241L1227.56 192.655L1168.41 214.044L1046.75 156.493Z" fill="#E7EEF3"/>
<path d="M1046.75 244.364V156.494L1168.56 213.987V311.137L1046.75 244.364Z" fill="#EBF3FE"/>
<path d="M1218.94 368.391V287.102L1294.25 327.717V409.364L1218.94 368.391Z" fill="#EBF3FE"/>
<path d="M1370.84 375.67L1370.84 295.132L1294.25 327.772L1294.25 409.368L1370.84 375.67Z" fill="#B1C6DB"/>
<path d="M1218.93 287.099L1298.01 257.865L1370.84 295.609L1294.26 327.72L1218.93 287.099Z" fill="#E7EEF3"/>
<path d="M939.376 287.125V205.836L1014.69 246.451V328.098L939.376 287.125Z" fill="#EBF3FE"/>
<path d="M1091.28 298.851L1091.28 218.312L1014.69 246.506L1014.69 328.103L1091.28 298.851Z" fill="#B1C6DB"/>
<path d="M939.373 205.834L1014.7 180.123L1091.28 218.373L1014.7 246.455L939.373 205.834Z" fill="#E7EEF3"/>
<path d="M1269.99 400.315V418.271" stroke="#9BA5B2" stroke-width="0.738856"/>
<path d="M1269.97 408.786C1265.43 408.926 1258.38 393.627 1269.85 363.473C1282.15 393.719 1274.79 408.786 1269.97 408.786Z" fill="#D4E2F5"/>
<path d="M1269.97 408.786C1269.89 408.868 1281.03 400.602 1269.85 363.473C1282.15 393.718 1274.79 408.786 1269.97 408.786Z" fill="#A7BAD1"/>
<path d="M1238.9 383.041V400.996" stroke="#9BA5B2" stroke-width="0.738856"/>
<path d="M1238.88 391.511C1234.35 391.651 1227.3 376.352 1238.77 346.198C1251.07 376.443 1243.7 391.511 1238.88 391.511Z" fill="#D4E2F5"/>
<path d="M1238.88 391.512C1238.8 391.593 1249.94 383.328 1238.77 346.198C1251.07 376.444 1243.7 391.512 1238.88 391.512Z" fill="#A7BAD1"/>
<path d="M1351.93 404.387V346.015L1397.88 372.109V430.839L1351.93 404.387Z" fill="#EBF3FE"/>
<path d="M1441.08 411.768L1441.08 354.092L1397.88 372.109V430.843L1441.08 411.768Z" fill="#B1C6DB"/>
<path d="M1351.93 346.015L1392.78 329.219L1441.09 354.087L1397.88 372.169L1351.93 346.015Z" fill="#E7EEF3"/>
<path d="M1418.27 447.107V388.734L1464.22 414.828V473.558L1418.27 447.107Z" fill="#EBF3FE"/>
<path d="M1418.28 388.735L1459.13 371.939L1507.44 396.807L1464.22 414.889L1418.28 388.735Z" fill="#E7EEF3"/>
<path d="M1290.73 433.724V375.352L1336.68 401.446V460.176L1290.73 433.724Z" fill="#EBF3FE"/>
<path d="M1379.89 441.104L1379.89 383.429L1336.68 401.446V460.18L1379.89 441.104Z" fill="#B1C6DB"/>
<path d="M1290.74 375.352L1331.59 358.556L1379.9 383.423L1336.68 401.506L1290.74 375.352Z" fill="#E7EEF3"/>
<path d="M1361.58 476.643V418.271L1407.53 444.365V503.095L1361.58 476.643Z" fill="#EBF3FE"/>
<path d="M1450.73 484.024L1450.73 426.348L1407.53 444.366V503.099L1450.73 484.024Z" fill="#B1C6DB"/>
<path d="M1361.58 418.271L1402.43 401.475L1450.74 426.343L1407.53 444.425L1361.58 418.271Z" fill="#E7EEF3"/>
<path d="M1433.28 520.573V462.201L1479.23 488.295V547.025L1433.28 520.573Z" fill="#EBF3FE"/>
<path d="M1433.28 462.201L1474.13 445.406L1522.44 470.273L1479.23 488.356L1433.28 462.201Z" fill="#E7EEF3"/>
<path d="M1350.1 449.788V467.743" stroke="#9BA5B2" stroke-width="0.738856"/>
<path d="M1350.08 458.258C1345.55 458.398 1338.5 443.099 1349.97 412.945C1362.27 443.19 1354.9 458.258 1350.08 458.258Z" fill="#D4E2F5"/>
<path d="M1350.08 458.259C1350 458.34 1361.14 450.075 1349.97 412.945C1362.27 443.191 1354.9 458.259 1350.08 458.259Z" fill="#A7BAD1"/>
<path d="M1421.58 493.572V511.528" stroke="#9BA5B2" stroke-width="0.738856"/>
<path d="M1421.56 502.044C1417.03 502.184 1409.98 486.884 1421.45 456.73C1433.75 486.976 1426.38 502.044 1421.56 502.044Z" fill="#D4E2F5"/>
<path d="M1421.56 502.044C1421.48 502.125 1432.63 493.86 1421.45 456.73C1433.75 486.976 1426.38 502.044 1421.56 502.044Z" fill="#A7BAD1"/>
<path d="M1150.85 296.544V314.5" stroke="#9BA5B2" stroke-width="0.738856"/>
<path d="M1150.83 305.016C1146.29 305.156 1139.24 289.856 1150.72 259.702C1163.02 289.948 1155.65 305.016 1150.83 305.016Z" fill="#D4E2F5"/>
<path d="M1150.83 305.016C1150.75 305.097 1161.89 296.832 1150.72 259.702C1163.02 289.948 1155.65 305.016 1150.83 305.016Z" fill="#A7BAD1"/>
<path d="M1026.88 340.728L1026.88 285.802L1058.54 302.919L1058.54 357.945L1026.88 340.728Z" fill="#EBF3FE"/>
<path d="M1137.15 326.64L1137.15 271.649L1058.54 302.919V357.924L1137.15 326.64Z" fill="#B1C6DB"/>
<path d="M1026.88 285.805L1104.25 255.99L1137.16 271.664L1058.54 302.921L1026.88 285.805Z" fill="#E7EEF3"/>
<path d="M1242.2 566.328L1242.2 496.848L1288.15 522.942L1288.15 592.779L1242.2 566.328Z" fill="#EBF3FE"/>
<path d="M1331.35 573.278L1331.35 504.925L1288.15 523.383V592.794L1331.35 573.278Z" fill="#B1C6DB"/>
<path d="M1242.2 496.849L1284.63 479.125L1331.36 504.92L1288.15 523.003L1242.2 496.849Z" fill="#E7EEF3"/>
<path d="M1314.63 610.207L1314.63 540.727L1360.58 566.821L1360.58 636.659L1314.63 610.207Z" fill="#EBF3FE"/>
<path d="M1403.78 617.157L1403.78 548.804L1360.58 567.262V636.673L1403.78 617.157Z" fill="#B1C6DB"/>
<path d="M1314.63 540.728L1357.06 523.004L1403.79 548.799L1360.58 566.882L1314.63 540.728Z" fill="#E7EEF3"/>
<path d="M1172.18 599.558L1172.18 530.079L1218.13 556.173L1218.13 626.01L1172.18 599.558Z" fill="#EBF3FE"/>
<path d="M1261.34 606.509L1261.34 538.156L1218.13 556.614V626.024L1261.34 606.509Z" fill="#B1C6DB"/>
<path d="M1172.19 530.08L1215.39 511.657L1261.35 538.151L1218.13 556.234L1172.19 530.08Z" fill="#E7EEF3"/>
<path d="M1235.58 617.457V635.412" stroke="#9BA5B2" stroke-width="0.738856"/>
<path d="M1235.57 625.928C1231.03 626.067 1223.98 610.768 1235.45 580.614C1247.75 610.86 1240.39 625.928 1235.57 625.928Z" fill="#D4E2F5"/>
<path d="M1235.57 625.928C1235.48 626.009 1246.63 617.744 1235.45 580.614C1247.75 610.86 1240.39 625.928 1235.57 625.928Z" fill="#A7BAD1"/>
<path d="M1248.04 648.692L1248.04 579.213L1293.99 605.306L1293.99 675.144L1248.04 648.692Z" fill="#EBF3FE"/>
<path d="M1337.19 655.642L1337.19 587.289L1293.99 605.747V675.158L1337.19 655.642Z" fill="#B1C6DB"/>
<path d="M1248.04 579.213L1290.47 561.489L1337.2 587.285L1293.99 605.367L1248.04 579.213Z" fill="#E7EEF3"/>
<path d="M1313.52 670.699V688.655" stroke="#9BA5B2" stroke-width="0.738856"/>
<path d="M1313.5 679.171C1308.96 679.31 1301.91 664.011 1313.39 633.857C1325.69 664.103 1318.32 679.171 1313.5 679.171Z" fill="#D4E2F5"/>
<path d="M1313.5 679.17C1313.42 679.252 1324.56 670.987 1313.39 633.857C1325.69 664.103 1318.32 679.17 1313.5 679.17Z" fill="#A7BAD1"/>
<path d="M1392.03 667.316L1392.03 597.837L1484.17 651.66L1484.17 721.102L1392.03 667.316Z" fill="#EBF3FE"/>
<path d="M1392.03 597.837L1434.46 580.113L1527.53 632.987L1484.32 651.936L1392.03 597.837Z" fill="#E7EEF3"/>
<path d="M1331.35 697.05L1331.35 627.57L1423.49 681.394L1423.49 750.836L1331.35 697.05Z" fill="#EBF3FE"/>
<path d="M1466.7 731.037L1466.7 662.684L1423.49 681.562V750.973L1466.7 731.037Z" fill="#B1C6DB"/>
<path d="M1331.35 627.571L1373.78 609.847L1466.85 662.72L1423.64 681.669L1331.35 627.571Z" fill="#E7EEF3"/>
<path d="M1447.58 760.165C1443.05 760.304 1436 745.005 1447.47 714.851C1459.77 745.097 1452.4 760.165 1447.58 760.165Z" fill="#D4E2F5"/>
<path d="M927.539 717.454L927.539 671.628L981.632 700.873L981.631 746.87L927.539 717.454Z" fill="#EBF3FE"/>
<path d="M1112.32 691.97V649.799L981.622 700.872L981.622 746.865L1112.32 691.97Z" fill="#B1C6DB"/>
<path d="M927.537 671.632L1060.34 618.085L1112.32 649.799L981.633 700.875L927.537 671.632Z" fill="#E7EEF3"/>
<path d="M773.955 782.395L773.956 736.569L828.048 765.814L828.048 811.811L773.955 782.395Z" fill="#EBF3FE"/>
<path d="M958.737 756.911V714.74L828.038 765.813L828.039 811.806L958.737 756.911Z" fill="#B1C6DB"/>
<path d="M773.954 736.573L906.757 683.026L958.737 714.74L828.05 765.816L773.954 736.573Z" fill="#E7EEF3"/>
<path d="M1074.31 725.894V687.877L1120.31 714.416L1120.31 752.83L1074.31 725.894Z" fill="#EBF3FE"/>
<path d="M1168.15 731.745L1168.15 694.459L1120.31 714.413V752.87L1168.15 731.745Z" fill="#B1C6DB"/>
<path d="M1074.31 687.877L1122.53 667.871L1168.21 694.454L1120.3 714.414L1074.31 687.877Z" fill="#E7EEF3"/>
<path d="M1142.41 766.373V728.356L1188.41 754.895L1188.41 793.309L1142.41 766.373Z" fill="#EBF3FE"/>
<path d="M1236.25 772.224L1236.25 734.939L1188.41 754.892V793.35L1236.25 772.224Z" fill="#B1C6DB"/>
<path d="M1142.41 728.357L1190.63 708.35L1236.31 734.934L1188.4 754.894L1142.41 728.357Z" fill="#E7EEF3"/>
<path d="M1005.33 758.899V720.882L1051.33 747.421L1051.33 785.835L1005.33 758.899Z" fill="#EBF3FE"/>
<path d="M1099.17 764.75L1099.17 727.464L1051.33 747.418V785.875L1099.17 764.75Z" fill="#B1C6DB"/>
<path d="M1005.33 720.882L1053.55 700.875L1099.23 727.459L1051.32 747.419L1005.33 720.882Z" fill="#E7EEF3"/>
<path d="M938.647 786.805V748.788L984.649 775.326L984.649 813.74L938.647 786.805Z" fill="#EBF3FE"/>
<path d="M1032.49 792.656L1032.49 755.37L984.649 775.323V813.781L1032.49 792.656Z" fill="#B1C6DB"/>
<path d="M938.647 748.788L986.869 728.781L1032.55 755.365L984.643 775.325L938.647 748.788Z" fill="#E7EEF3"/>
<path d="M1074.49 795.579V757.562L1120.49 784.101L1120.49 822.515L1074.49 795.579Z" fill="#EBF3FE"/>
<path d="M1168.33 801.431L1168.33 764.145L1120.49 784.098V822.556L1168.33 801.431Z" fill="#B1C6DB"/>
<path d="M1074.49 757.563L1122.71 737.556L1168.39 764.139L1120.48 784.1L1074.49 757.563Z" fill="#E7EEF3"/>
<path d="M752.527 578.499L752.527 495.947L856.153 551.829L856.153 634.874L752.527 578.499Z" fill="#EBF3FE"/>
<path d="M961.531 593.719L961.532 512.305L856.155 551.903L856.154 634.772L961.531 593.719Z" fill="#B1C6DB"/>
<path d="M752.522 495.943L862.227 455.517L961.648 512.376L856.17 551.832L752.522 495.943Z" fill="#E7EEF3"/>
<path d="M675.414 597.569L675.414 528.089L721.363 554.183L721.363 624.02L675.414 597.569Z" fill="#EBF3FE"/>
<path d="M764.566 607.216L764.566 538.864L721.364 554.623V624.034L764.566 607.216Z" fill="#B1C6DB"/>
<path d="M675.418 528.09L718.623 512.305L764.581 538.8L721.364 554.244L675.418 528.09Z" fill="#E7EEF3"/>
<path d="M738.368 638.232L738.368 568.753L784.317 594.846L784.317 664.684L738.368 638.232Z" fill="#EBF3FE"/>
<path d="M827.52 647.88L827.52 579.527L784.318 595.287V664.698L827.52 647.88Z" fill="#B1C6DB"/>
<path d="M738.371 568.753L781.577 552.968L827.535 579.463L784.317 594.907L738.371 568.753Z" fill="#E7EEF3"/>
<path d="M600.206 626.747L600.206 557.268L646.155 583.362L646.155 653.199L600.206 626.747Z" fill="#EBF3FE"/>
<path d="M689.358 636.395L689.358 568.043L646.155 583.802V653.213L689.358 636.395Z" fill="#B1C6DB"/>
<path d="M600.21 557.269L643.415 541.484L689.373 567.978L646.156 583.423L600.21 557.269Z" fill="#E7EEF3"/>
<path d="M663.359 667.538L663.36 598.059L709.309 624.152L709.309 693.99L663.359 667.538Z" fill="#EBF3FE"/>
<path d="M752.512 677.186L752.512 608.833L709.309 624.593V694.004L752.512 677.186Z" fill="#B1C6DB"/>
<path d="M663.363 598.059L706.569 582.275L752.527 608.769L709.309 624.213L663.363 598.059Z" fill="#E7EEF3"/>
<path d="M839.822 622.73V640.686" stroke="#9BA5B2" stroke-width="0.738856"/>
<path d="M839.803 631.201C835.269 631.341 828.218 616.042 839.69 585.887C851.99 616.133 844.623 631.201 839.803 631.201Z" fill="#D4E2F5"/>
<path d="M839.804 631.201C839.723 631.283 850.867 623.017 839.691 585.888C851.991 616.133 844.624 631.201 839.804 631.201Z" fill="#A7BAD1"/>
<path d="M767.342 652.814V670.769" stroke="#9BA5B2" stroke-width="0.738856"/>
<path d="M767.323 661.285C762.789 661.425 755.738 646.125 767.209 615.971C779.51 646.217 772.142 661.285 767.323 661.285Z" fill="#D4E2F5"/>
<path d="M767.324 661.285C767.242 661.367 778.387 653.101 767.21 615.971C779.511 646.217 772.143 661.285 767.324 661.285Z" fill="#A7BAD1"/>
<path d="M693.772 682.865V700.82" stroke="#9BA5B2" stroke-width="0.738856"/>
<path d="M693.753 691.337C689.218 691.476 682.167 676.177 693.639 646.023C705.94 676.269 698.572 691.337 693.753 691.337Z" fill="#D4E2F5"/>
<path d="M693.754 691.336C693.672 691.418 704.816 683.152 693.64 646.022C705.941 676.268 698.573 691.336 693.754 691.336Z" fill="#A7BAD1"/>
<path d="M501.906 653.083V610.413L628.289 684.338V727.453L501.906 653.083Z" fill="#EBF3FE"/>
<path d="M681.987 706.406L681.988 664.557L628.286 684.147V727.445L681.987 706.406Z" fill="#B1C6DB"/>
<path d="M501.909 610.413L552.365 590.33L681.916 664.579L628.274 684.349L501.909 610.413Z" fill="#E7EEF3"/>
<path d="M348.424 711.326L348.425 667.803L403.637 698.381L403.637 742.014L348.424 711.326Z" fill="#EBF3FE"/>
<path d="M527.06 694.412L527.06 651.376L403.632 698.409V741.861L527.06 694.412Z" fill="#B1C6DB"/>
<path d="M348.423 667.806L470.11 621.324L527.061 651.376L403.59 698.491L348.423 667.806Z" fill="#E7EEF3"/>
<path d="M493.864 735.69V690.273L539.813 716.367V762.142L493.864 735.69Z" fill="#EBF3FE"/>
<path d="M592.648 738.514L592.648 693.805L539.813 716.374V762.142L592.648 738.514Z" fill="#B1C6DB"/>
<path d="M493.875 690.265L544.348 668.933L592.658 693.8L539.822 716.419L493.875 690.265Z" fill="#E7EEF3"/>
<path d="M421.497 765.248V719.831L467.446 745.925V791.7L421.497 765.248Z" fill="#EBF3FE"/>
<path d="M520.281 768.072L520.281 723.363L467.446 745.932V791.699L520.281 768.072Z" fill="#B1C6DB"/>
<path d="M421.508 719.823L471.981 698.491L520.29 723.358L467.454 745.977L421.508 719.823Z" fill="#E7EEF3"/>
<path d="M611.239 714.228V732.183" stroke="#9BA5B2" stroke-width="0.738856"/>
<path d="M611.219 722.699C606.685 722.838 599.634 707.539 611.106 677.385C623.406 707.631 616.039 722.699 611.219 722.699Z" fill="#D4E2F5"/>
<path d="M611.22 722.699C611.139 722.78 622.283 714.515 611.107 677.385C623.407 707.631 616.04 722.699 611.22 722.699Z" fill="#A7BAD1"/>
<path d="M261.572 740.169V697.499L387.956 771.424V814.539L261.572 740.169Z" fill="#EBF3FE"/>
<path d="M441.654 793.492L441.654 751.642L387.953 771.233V814.53L441.654 793.492Z" fill="#B1C6DB"/>
<path d="M261.576 697.499L312.032 677.416L441.583 751.665L387.941 771.435L261.576 697.499Z" fill="#E7EEF3"/>
<path d="M178.331 777.685V732.268L224.28 758.361V804.137L178.331 777.685Z" fill="#EBF3FE"/>
<path d="M277.115 780.509L277.115 735.799L224.28 758.369V804.136L277.115 780.509Z" fill="#B1C6DB"/>
<path d="M178.342 732.259L228.815 710.927L277.125 735.795L224.289 758.413L178.342 732.259Z" fill="#E7EEF3"/>
<path d="M867.567 325.894V233.447L899.822 252.156V343.425L867.567 325.894Z" fill="#EBF3FE"/>
<path d="M935.468 331.063L935.468 239.909L899.826 252.162L899.851 343.648L935.468 331.063Z" fill="#B1C6DB"/>
<path d="M867.567 233.445L899.115 221.718L935.518 239.858L899.839 252.163L867.567 233.445Z" fill="#E7EEF3"/>
<path d="M790.159 356.992V307.122L893.412 366.013V416.267L790.159 356.992Z" fill="#EBF3FE"/>
<path d="M1014.69 366.076V319.573L893.412 366.075V416.268L1014.69 366.076Z" fill="#B1C6DB"/>
<path fill-rule="evenodd" clip-rule="evenodd" d="M893.481 366.061L1014.56 320.18L956.895 290.296L902.899 308.956L858.362 282.058L790.159 307.133L834.656 332.539L834.541 332.579L893.408 366.089L893.414 366.086L893.418 366.089L893.481 366.061Z" fill="#E7EEF3"/>
<path d="M817.394 310.239V287.587L893.316 330.89V353.825L817.394 310.239Z" fill="#EBF3FE"/>
<path d="M982.495 319.032V296.494L893.316 330.935V353.81L982.495 319.032Z" fill="#B1C6DB"/>
<path fill-rule="evenodd" clip-rule="evenodd" d="M893.381 330.919L982.462 296.719L940.062 274.745L900.03 288.777L867.543 269.157L817.393 287.595L850.111 306.275L850.027 306.305L893.313 330.945L893.316 330.943L893.32 330.946L893.381 330.919Z" fill="#E7EEF3"/>
<path d="M1027.23 340.388V358.344" stroke="#9BA5B2" stroke-width="0.738856"/>
<path d="M1027.21 348.86C1022.67 348.999 1015.62 333.7 1027.09 303.546C1039.4 333.792 1032.03 348.86 1027.21 348.86Z" fill="#D4E2F5"/>
<path d="M1027.21 348.86C1027.13 348.941 1038.27 340.676 1027.1 303.546C1039.4 333.792 1032.03 348.86 1027.21 348.86Z" fill="#A7BAD1"/>
<path d="M873.921 404.762V422.718" stroke="#9BA5B2" stroke-width="0.738856"/>
<path d="M873.902 413.234C869.368 413.374 862.317 398.074 873.789 367.92C886.089 398.166 878.722 413.234 873.902 413.234Z" fill="#D4E2F5"/>
<path d="M873.903 413.234C873.822 413.315 884.966 405.05 873.79 367.92C886.09 398.166 878.722 413.234 873.903 413.234Z" fill="#A7BAD1"/>
<path d="M954.929 473.849L954.93 358.921L1012.06 389.807L1012.06 504.915L954.929 473.849Z" fill="#EBF3FE"/>
<path d="M1154.77 448.999L1154.77 337.637L1012.05 389.808V504.846L1154.77 448.999Z" fill="#B1C6DB"/>
<path d="M954.928 358.926L1097.62 304.135L1154.78 336.895L1012.06 389.81L954.928 358.926Z" fill="#E7EEF3"/>
<path d="M1027.36 517.253L1027.36 412.732L1084.49 443.619L1084.48 548.319L1027.36 517.253Z" fill="#EBF3FE"/>
<path d="M1224.36 488.059L1224.36 386.958L1084.48 443.619V548.396L1224.36 488.059Z" fill="#B1C6DB"/>
<path d="M1027.36 412.737L1170.05 357.945L1224.43 386.949L1084.49 443.621L1027.36 412.737Z" fill="#E7EEF3"/>
<path d="M855.936 429.685L855.969 316.66L807.483 330.649L807.625 447.293L855.936 429.685Z" fill="#B1C6DB"/>
<path d="M693.349 271.521L744.07 260.339L856.153 316.615L807.378 330.78L693.349 271.521Z" fill="#E7EEF3"/>
<path d="M693.36 380.492V271.542L807.498 330.733V447.309L693.36 380.492Z" fill="#EBF3FE"/>
<path d="M620.951 410.416L620.951 340.937L666.901 367.031L666.901 436.868L620.951 410.416Z" fill="#EBF3FE"/>
<path d="M710.104 420.064L710.104 351.711L666.901 367.471V436.882L710.104 420.064Z" fill="#B1C6DB"/>
<path d="M620.955 340.937L664.16 325.153L710.119 351.647L666.901 367.091L620.955 340.937Z" fill="#E7EEF3"/>
<path d="M683.906 451.078L683.906 381.599L729.855 407.693L729.855 477.53L683.906 451.078Z" fill="#EBF3FE"/>
<path d="M773.058 460.727L773.058 392.374L729.856 408.133V477.544L773.058 460.727Z" fill="#B1C6DB"/>
<path d="M683.909 381.6L727.115 365.815L773.073 392.309L729.855 407.754L683.909 381.6Z" fill="#E7EEF3"/>
<path d="M788.714 435.542V453.498" stroke="#9BA5B2" stroke-width="0.738856"/>
<path d="M788.695 444.014C784.161 444.154 777.11 428.854 788.582 398.7C800.882 428.946 793.515 444.014 788.695 444.014Z" fill="#D4E2F5"/>
<path d="M788.696 444.014C788.615 444.096 799.759 435.83 788.583 398.7C800.883 428.946 793.516 444.014 788.696 444.014Z" fill="#A7BAD1"/>
<path d="M511.432 461.844V380.555L586.748 421.17V502.817L511.432 461.844Z" fill="#EBF3FE"/>
<path d="M663.337 472.936L663.338 392.398L586.748 421.225L586.748 502.821L663.337 472.936Z" fill="#B1C6DB"/>
<path d="M511.428 380.553L590.501 351.319L663.363 392.447L586.76 421.174L511.428 380.553Z" fill="#E7EEF3"/>
<path d="M614.344 503.093V521.048" stroke="#9BA5B2" stroke-width="0.738856"/>
<path d="M614.325 511.564C609.79 511.704 602.739 496.405 614.211 466.25C626.512 496.496 619.144 511.564 614.325 511.564Z" fill="#D4E2F5"/>
<path d="M614.325 511.564C614.244 511.646 625.388 503.38 614.212 466.25C626.513 496.496 619.145 511.564 614.325 511.564Z" fill="#A7BAD1"/>
<path d="M673.256 477.991V495.947" stroke="#9BA5B2" stroke-width="0.738856"/>
<path d="M673.236 486.462C668.702 486.602 661.651 471.302 673.123 441.148C685.423 471.394 678.056 486.462 673.236 486.462Z" fill="#D4E2F5"/>
<path d="M673.237 486.462C673.156 486.544 684.3 478.278 673.124 441.148C685.424 471.394 678.057 486.462 673.237 486.462Z" fill="#A7BAD1"/>
<path d="M646.027 488.881V506.837" stroke="#9BA5B2" stroke-width="0.738856"/>
<path d="M646.008 497.353C641.474 497.492 634.422 482.193 645.894 452.039C658.195 482.285 650.827 497.353 646.008 497.353Z" fill="#D4E2F5"/>
<path d="M646.009 497.352C645.927 497.434 657.071 489.168 645.895 452.039C658.196 482.284 650.828 497.352 646.009 497.352Z" fill="#A7BAD1"/>
<path d="M349.631 508.927L349.631 422.826L396.692 448.269L396.691 534.519L349.631 508.927Z" fill="#EBF3FE"/>
<path d="M511.919 490.596L511.919 407.312L396.684 448.269V534.582L511.919 490.596Z" fill="#B1C6DB"/>
<path d="M349.63 422.83L461.678 381.6L511.954 407.327L396.694 448.271L349.63 422.83Z" fill="#E7EEF3"/>
<path d="M412.715 553.654L412.715 467.553L459.776 492.996L459.775 579.246L412.715 553.654Z" fill="#EBF3FE"/>
<path d="M575.003 535.324L575.004 452.039L459.768 492.996V579.309L575.003 535.324Z" fill="#B1C6DB"/>
<path d="M412.714 467.557L524.763 426.327L575.038 452.054L459.778 492.998L412.714 467.557Z" fill="#E7EEF3"/>
<path d="M273.114 545.798V487.426L319.064 513.52V572.25L273.114 545.798Z" fill="#EBF3FE"/>
<path d="M362.022 555.222V497L319.064 513.52V572.254L362.022 555.222Z" fill="#B1C6DB"/>
<path d="M273.118 487.427L313.704 472.129L362.014 496.996L319.064 513.581L273.118 487.427Z" fill="#E7EEF3"/>
<path d="M195.531 577.527V519.154L241.48 545.248V603.978L195.531 577.527Z" fill="#EBF3FE"/>
<path d="M284.439 586.95V528.729L241.481 545.248V603.982L284.439 586.95Z" fill="#B1C6DB"/>
<path d="M195.534 519.155L236.121 503.857L284.431 528.725L241.48 545.309L195.534 519.155Z" fill="#E7EEF3"/>
<path d="M334.826 584.382V526.01L380.775 552.104V610.834L334.826 584.382Z" fill="#EBF3FE"/>
<path d="M423.734 593.806V535.584L380.775 552.104V610.838L423.734 593.806Z" fill="#B1C6DB"/>
<path d="M334.829 526.011L375.416 510.713L423.725 535.58L380.775 552.165L334.829 526.011Z" fill="#E7EEF3"/>
<path d="M257.243 616.112V557.74L303.192 583.833V642.564L257.243 616.112Z" fill="#EBF3FE"/>
<path d="M346.151 625.536V567.314L303.192 583.834V642.568L346.151 625.536Z" fill="#B1C6DB"/>
<path d="M257.246 557.74L297.833 542.442L346.142 567.31L303.192 583.894L257.246 557.74Z" fill="#E7EEF3"/>
<path d="M441.455 570.117V588.073" stroke="#9BA5B2" stroke-width="0.738856"/>
<path d="M441.436 578.588C436.902 578.728 429.851 563.428 441.323 533.274C453.623 563.52 446.255 578.588 441.436 578.588Z" fill="#D4E2F5"/>
<path d="M441.437 578.589C441.356 578.67 452.5 570.405 441.324 533.275C453.624 563.521 446.256 578.589 441.437 578.589Z" fill="#A7BAD1"/>
<path d="M363.277 601.116V619.072" stroke="#9BA5B2" stroke-width="0.738856"/>
<path d="M363.257 609.588C358.723 609.727 351.672 594.428 363.144 564.274C375.445 594.52 368.077 609.588 363.257 609.588Z" fill="#D4E2F5"/>
<path d="M363.258 609.587C363.177 609.669 374.321 601.404 363.145 564.274C375.446 594.52 368.078 609.587 363.258 609.587Z" fill="#A7BAD1"/>
<path d="M286.572 630.767V648.723" stroke="#9BA5B2" stroke-width="0.738856"/>
<path d="M286.552 639.239C282.018 639.378 274.967 624.079 286.439 593.925C298.74 624.171 291.372 639.239 286.552 639.239Z" fill="#D4E2F5"/>
<path d="M286.553 639.239C286.472 639.32 297.616 631.055 286.44 593.925C298.741 624.171 291.373 639.239 286.553 639.239Z" fill="#A7BAD1"/>
<path d="M110.038 605.579V566.938L224.487 633.882V672.926L110.038 605.579Z" fill="#EBF3FE"/>
<path d="M273.114 653.866L273.114 615.969L224.484 633.709V672.918L273.114 653.866Z" fill="#B1C6DB"/>
<path d="M110.042 566.939L155.733 548.752L273.05 615.99L224.473 633.893L110.042 566.939Z" fill="#E7EEF3"/>
<path d="M32.4549 634.485V595.845L146.904 662.789V701.832L32.4549 634.485Z" fill="#EBF3FE"/>
<path d="M195.531 682.773L195.531 644.876L146.901 662.616V701.825L195.531 682.773Z" fill="#B1C6DB"/>
<path d="M32.4586 595.845L78.1498 577.658L195.467 644.896L146.89 662.799L32.4586 595.845Z" fill="#E7EEF3"/>
<path d="M209.851 661.419V679.374" stroke="#9BA5B2" stroke-width="0.738856"/>
<path d="M209.832 669.89C205.298 670.03 198.246 654.73 209.718 624.576C222.019 654.822 214.651 669.89 209.832 669.89Z" fill="#D4E2F5"/>
<path d="M209.833 669.89C209.751 669.972 220.896 661.706 209.719 624.576C222.02 654.822 214.652 669.89 209.833 669.89Z" fill="#A7BAD1"/>
<path d="M130.057 690.834V708.79" stroke="#9BA5B2" stroke-width="0.738856"/>
<path d="M130.038 699.305C125.504 699.445 118.453 684.146 129.924 653.992C142.225 684.238 134.857 699.305 130.038 699.305Z" fill="#D4E2F5"/>
<path d="M130.039 699.305C129.958 699.387 141.102 691.121 129.926 653.992C142.226 684.237 134.858 699.305 130.039 699.305Z" fill="#A7BAD1"/>
<path d="M-32.343 659.319L-32.3428 589.84L13.6066 615.934L13.6064 685.771L-32.343 659.319Z" fill="#EBF3FE"/>
<path d="M56.8098 669.076L56.8099 601.903L13.6069 616.374V685.785L56.8098 669.076Z" fill="#B1C6DB"/>
<path d="M-32.3396 589.84L9.96639 575.15L56.8189 601.903L13.6065 615.994L-32.3396 589.84Z" fill="#E7EEF3"/>
<path d="M27.3423 705.801L27.3425 636.322L73.2918 662.415L73.2916 732.253L27.3423 705.801Z" fill="#EBF3FE"/>
<path d="M116.495 715.558L116.495 648.385L73.2921 662.856V732.267L116.495 715.558Z" fill="#B1C6DB"/>
<path d="M27.3459 636.322L69.6518 621.632L116.504 648.385L73.2919 662.476L27.3459 636.322Z" fill="#E7EEF3"/>
<path d="M-45.1333 734.446L-45.1331 664.966L0.816219 691.06L0.81604 760.897L-45.1333 734.446Z" fill="#EBF3FE"/>
<path d="M44.0194 744.203L44.0196 677.029L0.816532 691.5V760.911L44.0194 744.203Z" fill="#B1C6DB"/>
<path d="M-45.1299 664.967L-2.82389 650.277L44.0286 677.029L0.816204 691.121L-45.1299 664.967Z" fill="#E7EEF3"/>
<path d="M57.5812 719.196V737.151" stroke="#9BA5B2" stroke-width="0.738856"/>
<path d="M57.5619 727.667C53.0278 727.807 45.9767 712.507 57.4486 682.353C69.7491 712.599 62.3815 727.667 57.5619 727.667Z" fill="#D4E2F5"/>
<path d="M57.5629 727.667C57.4815 727.749 68.6258 719.483 57.4495 682.353C69.7501 712.599 62.3825 727.667 57.5629 727.667Z" fill="#A7BAD1"/>
</g>
<defs>
<linearGradient id="paint0_linear_3894_16660" x1="1153.12" y1="642.225" x2="1106.31" y2="641.934" gradientUnits="userSpaceOnUse">
<stop stop-color="white"/>
<stop offset="0.27"/>
<stop offset="0.78"/>
<stop offset="1" stop-color="white"/>
</linearGradient>
<linearGradient id="paint1_linear_3894_16660" x1="1127.85" y1="649.241" x2="1128.71" y2="647.699" gradientUnits="userSpaceOnUse">
<stop stop-color="white"/>
<stop offset="0.12" stop-color="#FAFAFA"/>
<stop offset="0.25" stop-color="#EEEEEE"/>
<stop offset="0.37" stop-color="#D9D9D9"/>
<stop offset="0.5" stop-color="#BCBCBC"/>
<stop offset="0.63" stop-color="#979797"/>
<stop offset="0.76" stop-color="#696969"/>
<stop offset="0.89" stop-color="#343434"/>
<stop offset="1"/>
</linearGradient>
<linearGradient id="paint2_linear_3894_16660" x1="1173.49" y1="657.061" x2="1172.63" y2="655.617" gradientUnits="userSpaceOnUse">
<stop stop-color="white"/>
<stop offset="0.2" stop-color="#BDBDBD"/>
<stop offset="0.41" stop-color="#7A7A7A"/>
<stop offset="0.61" stop-color="#454545"/>
<stop offset="0.78" stop-color="#1F1F1F"/>
<stop offset="0.91" stop-color="#080808"/>
<stop offset="1"/>
</linearGradient>
<linearGradient id="paint3_linear_3894_16660" x1="1158.01" y1="656.352" x2="1162.25" y2="656.379" gradientUnits="userSpaceOnUse">
<stop stop-color="white"/>
<stop offset="1"/>
</linearGradient>
<linearGradient id="paint4_linear_3894_16660" x1="1159.08" y1="649.213" x2="1162.99" y2="649.237" gradientUnits="userSpaceOnUse">
<stop stop-color="white"/>
<stop offset="1"/>
</linearGradient>
<linearGradient id="paint5_linear_3894_16660" x1="1179.38" y1="648.337" x2="1179.43" y2="648.337" gradientUnits="userSpaceOnUse">
<stop stop-color="white"/>
<stop offset="1"/>
</linearGradient>
<linearGradient id="paint6_linear_3894_16660" x1="1171.49" y1="651.116" x2="1170.18" y2="650.594" gradientUnits="userSpaceOnUse">
<stop stop-color="white"/>
<stop offset="0.2" stop-color="#BDBDBD"/>
<stop offset="0.41" stop-color="#7A7A7A"/>
<stop offset="0.61" stop-color="#454545"/>
<stop offset="0.78" stop-color="#1F1F1F"/>
<stop offset="0.91" stop-color="#080808"/>
<stop offset="1"/>
</linearGradient>
<linearGradient id="paint7_linear_3894_16660" x1="1173.69" y1="650.295" x2="1174.46" y2="647.473" gradientUnits="userSpaceOnUse">
<stop stop-color="white"/>
<stop offset="0.2" stop-color="#BDBDBD"/>
<stop offset="0.41" stop-color="#7A7A7A"/>
<stop offset="0.61" stop-color="#454545"/>
<stop offset="0.78" stop-color="#1F1F1F"/>
<stop offset="0.91" stop-color="#080808"/>
<stop offset="1"/>
</linearGradient>
<linearGradient id="paint8_linear_3894_16660" x1="1104.26" y1="629.723" x2="1099.67" y2="629.695" gradientUnits="userSpaceOnUse">
<stop stop-color="white"/>
<stop offset="1"/>
</linearGradient>
<linearGradient id="paint9_linear_3894_16660" x1="1103.69" y1="623.209" x2="1101.06" y2="623.193" gradientUnits="userSpaceOnUse">
<stop stop-color="white"/>
<stop offset="1"/>
</linearGradient>
<linearGradient id="paint10_linear_3894_16660" x1="1150.28" y1="616.16" x2="1146.55" y2="616.137" gradientUnits="userSpaceOnUse">
<stop stop-color="white"/>
<stop offset="1"/>
</linearGradient>
<linearGradient id="paint11_linear_3894_16660" x1="1152.65" y1="654.22" x2="1167.12" y2="654.31" gradientUnits="userSpaceOnUse">
<stop/>
<stop offset="0.31" stop-color="white"/>
<stop offset="0.37" stop-color="#F4F4F4"/>
<stop offset="0.47" stop-color="#D8D8D8"/>
<stop offset="0.61" stop-color="#ABABAB"/>
<stop offset="0.76" stop-color="#6C6C6C"/>
<stop offset="0.94" stop-color="#1C1C1C"/>
<stop offset="1"/>
</linearGradient>
<linearGradient id="paint12_linear_3894_16660" x1="1118.87" y1="632.233" x2="1112.3" y2="632.193" gradientUnits="userSpaceOnUse">
<stop stop-color="#AFB2B2"/>
<stop offset="0.5" stop-color="#E8EDED"/>
<stop offset="1" stop-color="#C7CACC"/>
</linearGradient>
<linearGradient id="paint13_linear_3894_16660" x1="1105.31" y1="623.082" x2="1100.84" y2="623.054" gradientUnits="userSpaceOnUse">
<stop stop-color="#969999"/>
<stop offset="0.5" stop-color="#CFD4D4"/>
<stop offset="1" stop-color="#AEB1B3"/>
</linearGradient>
<linearGradient id="paint14_linear_3894_16660" x1="1105.31" y1="623.082" x2="1100.84" y2="623.054" gradientUnits="userSpaceOnUse">
<stop stop-color="white"/>
<stop offset="0.31" stop-color="white"/>
<stop offset="1" stop-color="white"/>
</linearGradient>
<linearGradient id="paint15_linear_3894_16660" x1="1123.27" y1="629.07" x2="1123.01" y2="628.037" gradientUnits="userSpaceOnUse">
<stop stop-color="#141C1E"/>
<stop offset="0.39" stop-color="#1D2B2D"/>
<stop offset="1" stop-color="#212D31"/>
</linearGradient>
</defs>
</svg>
