<svg width="18" height="18" viewBox="0 0 18 18" fill="none" xmlns="http://www.w3.org/2000/svg">
<g clip-path="url(#clip0_42_85)">
<path d="M1.67738 8.4376L16.3226 8.4376C16.5459 8.4376 16.7479 8.57485 16.8334 8.78467C16.9189 8.99504 16.8716 9.23692 16.7136 9.39779L10.0823 16.1478C9.86625 16.3677 9.51694 16.3677 9.30094 16.1478C9.08494 15.9279 9.08494 15.5724 9.30094 15.3524L14.9884 9.5626L1.67794 9.5626C1.37194 9.5626 1.125 9.3106 1.125 9.0001C1.125 8.6896 1.37194 8.4376 1.67738 8.4376Z" fill="#EC3C3F"/>
<path d="M9.69075 1.6876C9.83194 1.6876 9.97369 1.74273 10.0817 1.85242L14.5029 6.35242C14.7189 6.57235 14.7189 6.92785 14.5029 7.14779C14.2869 7.36773 13.9376 7.36773 13.7216 7.14779L9.30038 2.64779C9.08438 2.42785 9.08438 2.07235 9.30038 1.85242C9.40782 1.74273 9.54956 1.6876 9.69075 1.6876Z" fill="#EC3C3F"/>
</g>
<defs>
<clipPath id="clip0_42_85">
<rect width="18" height="18" fill="white" transform="translate(18 18) rotate(-180)"/>
</clipPath>
</defs>
</svg>
